<?xml version="1.0" encoding="UTF-8"?>
<svg version="1.1" xmlns="http://www.w3.org/2000/svg" width="1024" height="1024">
<path d="M0 0 C1.02786621 0.1551709 2.05573242 0.3103418 3.11474609 0.47021484 C14.17235652 2.17018598 25.03114877 4.30031573 35.8203125 7.265625 C38.91157531 8.1082235 38.91157531 8.1082235 41.8046875 7.984375 C44 8 44 8 46 10 C47.51143098 10.59204016 49.05107392 11.11320829 50.6015625 11.59375 C51.55393799 11.89619629 52.50631348 12.19864258 53.48754883 12.51025391 C54.52290771 12.83687012 55.5582666 13.16348633 56.625 13.5 C100.73544895 27.89410981 141.41577702 51.02776279 176 82 C176.96679688 82.8559375 177.93359375 83.711875 178.9296875 84.59375 C185.20805175 90.24257637 191.24848385 96.12191295 197.25 102.0625 C198.01417236 102.81362061 198.77834473 103.56474121 199.56567383 104.33862305 C200.27103271 105.042854 200.9763916 105.74708496 201.703125 106.47265625 C202.33895508 107.10437744 202.97478516 107.73609863 203.62988281 108.38696289 C205 110 205 110 205 112 C205.99 112.33 206.98 112.66 208 113 C209.8046875 114.94140625 209.8046875 114.94140625 211.875 117.5625 C212.66777344 118.55894531 213.46054687 119.55539062 214.27734375 120.58203125 C214.71159668 121.13068848 215.14584961 121.6793457 215.59326172 122.24462891 C217.08270495 124.10320177 218.60191416 125.93389199 220.12890625 127.76171875 C227.38879648 136.48418067 233.93865667 145.41048379 240 155 C240.41926758 155.6506543 240.83853516 156.30130859 241.27050781 156.97167969 C291.09236642 234.41828033 304.97963672 327.84249815 285.84130859 417.26171875 C283.7255979 426.66269443 280.9874585 435.84391563 278 445 C277.596604 446.26529541 277.596604 446.26529541 277.18505859 447.55615234 C265.7115799 483.29586304 248.10864894 519.2052101 224.31445312 548.38232422 C222.84439395 550.1915018 221.3988077 552.01894865 219.953125 553.84765625 C213.56961134 561.87115734 206.90041953 569.51683754 199.8515625 576.9609375 C197.65163703 579.28600417 195.55266149 581.66787319 193.5 584.125 C188.95502516 589.39355292 183.69249435 593.96500068 178.53222656 598.61621094 C177.22000347 599.8013098 175.91758098 600.99724507 174.6171875 602.1953125 C168.93104033 607.37788944 162.89656931 612.06862934 156.74902344 616.68359375 C155.0156243 617.98824034 153.29303371 619.30630143 151.5703125 620.625 C93.328488 664.75860662 17.62335046 688.11077305 -55.34326172 686.07373047 C-57.77214375 686.00632352 -60.19934456 685.97136191 -62.62890625 685.94140625 C-88.83399842 685.35687456 -115.76126301 680.83689717 -141 674 C-142.423125 673.61787354 -142.423125 673.61787354 -143.875 673.22802734 C-176.60734682 664.26372563 -207.37910776 650.1473734 -236 632 C-236.67853027 631.56977539 -237.35706055 631.13955078 -238.05615234 630.69628906 C-259.13132119 617.21449566 -277.9542703 601.26556676 -296 584 C-296.52255371 583.50081055 -297.04510742 583.00162109 -297.58349609 582.48730469 C-304.27900357 576.05277506 -310.24348064 569.27639246 -316 562 C-316.93321093 560.85539505 -317.86819659 559.7122354 -318.8046875 558.5703125 C-346.3425665 524.85461403 -386 468.22620462 -386 423 C-386.66 422.67 -387.32 422.34 -388 422 C-388.54148903 418.35999043 -388.89131552 414.74584619 -389.2109375 411.08203125 C-389.41127818 409.04753715 -389.6991943 407.02208273 -390 405 C-390.66 404.67 -391.32 404.34 -392 404 C-392.37890625 401.78515625 -392.37890625 401.78515625 -392.5625 399.0625 C-392.76801323 395.39324879 -392.76801323 395.39324879 -394 392 C-394.21033172 389.94029491 -394.36642713 387.87494586 -394.49609375 385.80859375 C-394.61960205 383.91343018 -394.61960205 383.91343018 -394.74560547 381.97998047 C-394.82955566 380.66658691 -394.91350586 379.35319336 -395 378 C-395.17660263 375.53242384 -395.35497179 373.06497344 -395.53515625 370.59765625 C-395.71130097 368.08596296 -395.88708073 365.57424406 -396.0625 363.0625 C-396.19881836 361.19948242 -396.19881836 361.19948242 -396.33789062 359.29882812 C-398.2808056 331.14847351 -396.16474452 302.71282548 -391 275 C-390.82098145 274.02804687 -390.64196289 273.05609375 -390.45751953 272.0546875 C-386.30484557 250.06514903 -379.19740011 228.79480495 -371 208 C-370.60893066 207.00709961 -370.60893066 207.00709961 -370.20996094 205.99414062 C-358.22362903 176.08081669 -339.80871914 148.78241735 -319.5234375 123.91796875 C-317.85268881 121.86911812 -317.85268881 121.86911812 -316 119 C-315.34 119 -314.68 119 -314 119 C-313.73300293 118.41154297 -313.46600586 117.82308594 -313.19091797 117.21679688 C-311.97911664 114.96112732 -310.69942382 113.38713213 -308.9453125 111.53125 C-308.33631104 110.88341553 -307.72730957 110.23558105 -307.09985352 109.56811523 C-306.12230103 108.54439819 -306.12230103 108.54439819 -305.125 107.5 C-304.45460693 106.79238525 -303.78421387 106.08477051 -303.09350586 105.35571289 C-287.24789911 88.6944267 -287.24789911 88.6944267 -279.21875 81.8828125 C-277.47077099 80.39949228 -275.74644641 78.8882959 -274.03125 77.3671875 C-259.16733211 64.24617715 -242.90148269 53.31025566 -226 43 C-224.35451172 41.97519531 -224.35451172 41.97519531 -222.67578125 40.9296875 C-186.76219498 19.39054793 -145.17331012 6.36793135 -104 0 C-102.96262695 -0.16516113 -101.92525391 -0.33032227 -100.85644531 -0.50048828 C-68.09721262 -5.4923222 -32.71201753 -5.09541294 0 0 Z M-236 77 C-236.75410156 77.53931152 -237.50820313 78.07862305 -238.28515625 78.63427734 C-246.62925145 84.64769163 -254.47623691 90.97602009 -262 98 C-263.43181768 99.27723206 -264.86902617 100.54845613 -266.3125 101.8125 C-266.94800781 102.369375 -267.58351563 102.92625 -268.23828125 103.5 C-269.78643798 104.81816448 -271.38959827 106.07114867 -273 107.3125 C-273.66 107.869375 -274.32 108.42625 -275 109 C-275 109.66 -275 110.32 -275 111 C-275.5775 111.226875 -276.155 111.45375 -276.75 111.6875 C-279.59591381 113.34761639 -280.99841921 115.39187957 -283 118 C-285.30274067 120.36853326 -287.66041607 122.67277641 -290.0390625 124.96484375 C-295.51771103 130.32111697 -300.35873957 135.90885194 -305 142 C-305.46873535 142.61359375 -305.9374707 143.2271875 -306.42041016 143.859375 C-312.1826707 151.41787882 -317.90136879 158.9729242 -323 167 C-323.68835938 168.03898438 -324.37671875 169.07796875 -325.0859375 170.1484375 C-353.6144362 213.80918661 -368.39356484 263.33818739 -373 315 C-373.13213032 316.34121321 -373.26482571 317.68237106 -373.3984375 319.0234375 C-373.69100035 322.35232829 -373.8768683 325.66051909 -374 329 C-374.02723145 329.71140137 -374.05446289 330.42280273 -374.08251953 331.15576172 C-375.57708505 376.81050842 -366.45607759 422.90171239 -349 465 C-348.59974609 465.96679688 -348.19949219 466.93359375 -347.78710938 467.9296875 C-338.9548669 488.90452474 -327.65724275 508.78847343 -314 527 C-313.18815806 528.10369323 -312.3768311 529.2077658 -311.56640625 530.3125 C-295.29950223 552.12854282 -276.62934074 573.3429215 -255 590 C-253.84100936 590.9445638 -252.68496445 591.89274893 -251.53125 592.84375 C-212.29016563 625.06539413 -163.73426461 647.23906956 -114 657 C-112.72769531 657.26296875 -112.72769531 657.26296875 -111.4296875 657.53125 C-30.98053218 673.05198736 56.67020533 657.42132829 124.99414062 611.38232422 C136.64106137 603.35592874 147.81176216 594.83912094 158.37817383 585.43310547 C159.49913366 584.44258399 160.6298885 583.46307724 161.76831055 582.49267578 C167.40595285 577.66370282 172.68975856 572.49640011 177.93579102 567.24951172 C179.42641615 565.76106763 180.92487017 564.28082723 182.42382812 562.80078125 C188.73037229 556.53162009 194.51754138 550.01613238 200 543 C200.54825439 542.30036133 201.09650879 541.60072266 201.66137695 540.87988281 C237.85493152 494.10740326 261.73034057 438.86118236 269 380 C269.10296387 379.19788086 269.20592773 378.39576172 269.31201172 377.56933594 C276.88379749 315.9663395 265.89597297 252.50648661 237.65625 197.265625 C236.64476132 195.27127468 235.65875024 193.26339991 234.71875 191.234375 C227.27368208 175.34551054 216.99664075 160.61823991 206 147 C205.04845535 145.78567315 204.09933629 144.56944265 203.15234375 143.3515625 C197.08953678 135.55826794 191.01222503 127.97163328 184 121 C183.05515649 120.04509443 182.11116723 119.08934297 181.16796875 118.1328125 C176.23509425 113.14658744 171.30714865 108.22737981 165.95703125 103.68359375 C164.57577666 102.49532882 163.22110851 101.27581807 161.88671875 100.03515625 C150.56860369 89.51596696 138.02469078 80.28843959 125 72 C123.82680389 71.23831055 122.65362787 70.47659017 121.48046875 69.71484375 C81.41728399 43.94256901 36.40273712 27.36956118 -11 22 C-11.85464844 21.89703613 -12.70929688 21.79407227 -13.58984375 21.68798828 C-91.38619938 12.54142567 -172.11934462 31.20908781 -236 77 Z " fill="#C6BBA9" transform="translate(564,168)"/>
<path d="M0 0 C0.75691132 -0.0025882 1.51382263 -0.00517639 2.29367065 -0.00784302 C4.44713125 -0.01366801 6.60044473 -0.0121371 8.75390625 -0.0078125 C9.99599854 -0.00668457 11.23809082 -0.00555664 12.51782227 -0.00439453 C15.4375 0.125 15.4375 0.125 17.4375 1.125 C17.46036537 35.12219892 17.47799772 69.11939594 17.48856533 103.11660084 C17.48981611 107.12599237 17.49111042 111.13538388 17.49243164 115.14477539 C17.49269395 115.94300722 17.49295626 116.74123906 17.49322652 117.56365974 C17.49758342 130.50573922 17.50547107 143.44781428 17.5146528 156.38989114 C17.5239888 169.65963131 17.5295555 182.92936916 17.53158849 196.19911247 C17.53296383 204.39393584 17.53731501 212.58874672 17.54541647 220.78356624 C17.55130391 227.05661554 17.5519591 233.32965522 17.55060768 239.60270691 C17.55088422 242.1839919 17.55289209 244.76527734 17.55670547 247.34655952 C17.56163545 250.8538552 17.56050087 254.36109616 17.55775452 257.86839294 C17.56066736 258.9043633 17.5635802 259.94033365 17.56658131 261.00769705 C17.56459026 261.93975471 17.56259921 262.87181238 17.56054783 263.83211422 C17.56092755 264.64281712 17.56130727 265.45352003 17.5616985 266.28878969 C17.4375 268.125 17.4375 268.125 16.4375 269.125 C14.50988183 269.22420863 12.57860646 269.25299365 10.6484375 269.25439453 C8.7914624 269.25912277 8.7914624 269.25912277 6.89697266 269.26394653 C5.53548141 269.26215675 4.17399049 269.2601058 2.8125 269.2578125 C1.42626936 269.25848559 0.04003883 269.25945566 -1.34619141 269.26071167 C-4.25489422 269.2621884 -7.16356637 269.2600349 -10.07226562 269.25537109 C-13.80846598 269.24967381 -17.54459452 269.25295294 -21.28079224 269.25894356 C-24.14429266 269.26254985 -27.00777593 269.26141027 -29.87127686 269.25881577 C-31.24924732 269.25814668 -32.62721932 269.25897426 -34.00518799 269.26129532 C-35.92793754 269.26382292 -37.85069252 269.25929024 -39.7734375 269.25439453 C-41.41771729 269.25320114 -41.41771729 269.25320114 -43.09521484 269.25198364 C-45.5625 269.125 -45.5625 269.125 -46.5625 268.125 C-46.65998171 266.70289478 -46.68805441 265.27596724 -46.68834114 263.8505249 C-46.69094889 262.92256733 -46.69355664 261.99460976 -46.69624341 261.03853226 C-46.69401268 260.00713497 -46.69178196 258.97573769 -46.68948364 257.91308594 C-46.69104363 256.82671215 -46.69260362 255.74033836 -46.69421089 254.62104416 C-46.69822602 250.95047431 -46.69502926 247.27994522 -46.69189453 243.609375 C-46.69324834 240.99019344 -46.69502816 238.37101206 -46.69720459 235.75183105 C-46.70166295 229.35809905 -46.70068553 222.96437876 -46.69779195 216.57064629 C-46.69553817 211.3766457 -46.69522528 206.1826484 -46.69631577 200.98864746 C-46.696469 200.25082558 -46.69662223 199.51300371 -46.69678011 198.75282359 C-46.69709982 197.25418885 -46.69742403 195.75555412 -46.6977527 194.25691938 C-46.70060768 180.18758474 -46.69732018 166.1182566 -46.69195233 152.04892302 C-46.68748428 139.96360167 -46.6882602 127.87828992 -46.69287109 115.79296875 C-46.69821653 101.77570563 -46.70033299 87.75844823 -46.69725883 73.74118423 C-46.69694026 72.247907 -46.69662589 70.75462977 -46.69631577 69.26135254 C-46.69608435 68.15912609 -46.69608435 68.15912609 -46.69584826 67.03463244 C-46.69498302 61.843847 -46.69644615 56.65306516 -46.69879532 51.46228027 C-46.70188459 44.4823795 -46.69970106 37.50249724 -46.69390106 30.52259827 C-46.69257267 27.95260142 -46.6929689 25.38260306 -46.69516373 22.81260681 C-46.69787214 19.32068813 -46.6944979 15.8288289 -46.68948364 12.33691406 C-46.69171436 11.30551678 -46.69394509 10.27411949 -46.69624341 9.21146774 C-46.69363566 8.28351017 -46.69102791 7.3555526 -46.68834114 6.3994751 C-46.68817879 5.59235203 -46.68801644 4.78522896 -46.68784916 3.95364761 C-46.5625 2.125 -46.5625 2.125 -45.5625 1.125 C-43.9641468 0.96510764 -42.35893388 0.87328394 -40.75390625 0.80859375 C-39.19144165 0.74551025 -39.19144165 0.74551025 -37.59741211 0.68115234 C-36.45151611 0.64199707 -35.30562012 0.6028418 -34.125 0.5625 C-32.35878296 0.4998999 -32.35878296 0.4998999 -30.55688477 0.43603516 C-20.37142631 0.11264537 -10.18997541 0.01640679 0 0 Z " fill="#C6BBAA" transform="translate(326.5625,365.875)"/>
<path d="M0 0 C25.805004 -1.29264399 57.97209344 4.5275709 77.93359375 22.0234375 C78.61550781 22.67570312 79.29742187 23.32796875 80 24 C80.63035156 24.59039062 81.26070313 25.18078125 81.91015625 25.7890625 C94.73426442 39.03594346 98.23233969 58.18037583 98 76 C97.08676625 96.30575241 90.0677458 114.90736255 75 129 C55.28205128 146 55.28205128 146 47 146 C47 146.99 47 147.98 47 149 C47.92619141 149.41958984 47.92619141 149.41958984 48.87109375 149.84765625 C63.08138811 156.57429483 73.23511118 166.20874093 79 181 C81.82194449 190.43403201 82.46387916 200.24648566 83.4375 210 C85.30301741 228.40732505 88.42822227 245.87385723 102.578125 259.12109375 C106.40743101 262.09189406 110.53825882 264.14637475 115 266 C115 266.99 115 267.98 115 269 C110.67359781 270.05362357 106.44395678 270.17735119 102.015625 270.203125 C101.24176453 270.20882507 100.46790405 270.21452515 99.67059326 270.22039795 C98.02992099 270.22982592 96.38922997 270.23637316 94.74853516 270.24023438 C92.29944103 270.24980676 89.8512364 270.28079271 87.40234375 270.3125 C68.03071748 270.44313375 48.44846612 268.22881039 34 254 C19.245646 237.58578117 16.92047839 216.08086442 15.41870117 194.97949219 C14.24020634 178.82062779 11.77727379 161.67372544 -0.875 150.3125 C-2.23633684 149.19153121 -3.60650559 148.08073233 -5 147 C-2.04168911 144.42340664 0.90800354 142.47729988 4.375 140.6875 C15.12479884 134.83046674 21.51992753 124.51100894 25 113 C32.48025704 83.65437623 30.02579939 48.32179088 15.9921875 21.30859375 C11.70766312 14.19292287 6.26937136 8.10067102 -1 4 C-0.67 2.68 -0.34 1.36 0 0 Z " fill="#C7BCAA" transform="translate(377,367)"/>
<path d="M0 0 C0 0.99 0 1.98 0 3 C-1.10408203 3.56267578 -1.10408203 3.56267578 -2.23046875 4.13671875 C-7.61782242 6.96205482 -11.90863836 9.51270014 -16 14 C-16.66 14 -17.32 14 -18 14 C-18.26425781 14.56976563 -18.52851562 15.13953125 -18.80078125 15.7265625 C-20.07375454 18.13982131 -21.55692501 20.18846237 -23.1875 22.375 C-54.40501519 66.80490751 -52.45885224 137.0311781 -44 188 C-39.71814263 210.49136864 -33.35649136 233.39029884 -18 251 C-17.48050781 251.61359375 -16.96101562 252.2271875 -16.42578125 252.859375 C-12.08317203 257.61206112 -7.08017688 260.39313606 -1.37890625 263.32421875 C-0.59386719 263.87722656 0.19117188 264.43023438 1 265 C1 266.32 1 267.64 1 269 C-26.70886926 270.548943 -53.0137924 261.51408482 -75 245 C-75.77730469 244.45988281 -76.55460938 243.91976562 -77.35546875 243.36328125 C-77.89816406 242.91339844 -78.44085937 242.46351563 -79 242 C-79 241.34 -79 240.68 -79 240 C-79.57621094 239.74476563 -80.15242187 239.48953125 -80.74609375 239.2265625 C-98.75370892 229.42692444 -109.93926961 202.35923803 -115.68359375 183.7421875 C-126.2866374 147.08264604 -126.61721798 100.27608351 -108 66 C-105.96609208 62.33010025 -103.8901575 58.68684828 -101.76953125 55.06640625 C-100.04724304 52.20883553 -100.04724304 52.20883553 -99.07421875 49.90234375 C-97.49828493 47.11150823 -95.30996969 45.21718698 -93 43 C-91.86879888 41.84073861 -90.74144265 40.6777176 -89.6171875 39.51171875 C-73.51136256 22.98052989 -25.94967151 -12.97483576 0 0 Z " fill="#C6BCAA" transform="translate(642,368)"/>
<path d="M0 0 C1.49430542 0.13051758 1.49430542 0.13051758 3.01879883 0.26367188 C15.02995618 1.42030866 26.86862248 3.59330394 38.72802734 5.77734375 C43.08391199 6.5580734 47.45243098 7.25013972 51.82543945 7.92773438 C54.0625 8.375 54.0625 8.375 55.0625 9.375 C54.83897493 19.62312947 53.39968197 29.88024958 52.21484375 40.0546875 C52.03664941 41.60406539 51.85872173 43.15347398 51.68104553 44.70291138 C51.21845265 48.73079727 50.75230105 52.75826311 50.28533936 56.78564453 C49.80716475 60.9154366 49.33245046 65.04562634 48.85742188 69.17578125 C47.92911692 77.24257476 46.99704207 85.30892669 46.0625 93.375 C45.0725 93.375 44.0825 93.375 43.0625 93.375 C42.65902344 92.53324219 42.25554688 91.69148438 41.83984375 90.82421875 C19.53373996 42.5216989 19.53373996 42.5216989 -14.9375 3.375 C-14.6075 2.385 -14.2775 1.395 -13.9375 0.375 C-9.47797624 -1.36592595 -4.6533308 -0.41338397 0 0 Z " fill="#C6BBAA" transform="translate(678.9375,366.625)"/>
<path d="M0 0 C0.33 0 0.66 0 1 0 C1.09262957 11.53500691 1.16372932 23.06992551 1.20724869 34.60522842 C1.22813454 39.96139908 1.25647064 45.31731551 1.30175781 50.67333984 C1.34517961 55.84101616 1.36912959 61.00844777 1.37950897 66.17629242 C1.38690691 68.14911502 1.40135319 70.12192405 1.42292023 72.09464264 C1.45190543 74.85538303 1.45595805 77.6151088 1.45410156 80.37597656 C1.46848267 81.19381119 1.48286377 82.01164581 1.49768066 82.85426331 C1.47124425 86.48106284 1.33586326 88.55823811 -0.89283752 91.48965454 C-3.20083711 93.1439535 -4.75605785 93.71903014 -7.54296875 94.1953125 C-8.43943115 94.35290039 -9.33589355 94.51048828 -10.25952148 94.67285156 C-11.22575439 94.82206055 -12.1919873 94.97126953 -13.1875 95.125 C-14.1969165 95.28967773 -15.20633301 95.45435547 -16.24633789 95.62402344 C-33.03418324 98.23119247 -50.01486059 99.45563712 -67 99 C-64.02324958 95.93969167 -61.05552493 93.16383614 -57.625 90.625 C-48.10721377 83.29756523 -41.29204318 74.81417519 -36 64 C-35.10043731 62.63615816 -34.18443727 61.28310178 -33.2578125 59.9375 C-30.02502526 55.12443289 -27.1920122 50.16119771 -24.4375 45.0625 C-23.6796521 43.66849976 -23.6796521 43.66849976 -22.90649414 42.24633789 C-18.16653364 33.45247335 -13.69319696 24.52871633 -9.27709961 15.56860352 C-8.76155518 14.52373779 -8.24601074 13.47887207 -7.71484375 12.40234375 C-7.26230225 11.47929443 -6.80976074 10.55624512 -6.34350586 9.60522461 C-4.99177372 6.98404822 -3.64751784 4.44792242 -2 2 C-1.34 2 -0.68 2 0 2 C0 1.34 0 0.68 0 0 Z " fill="#C7BCAB" transform="translate(732,537)"/>
<path d="M0 0 C7.14652895 -0.22647451 14.13086632 -0.03656279 21.23828125 0.66503906 C42.08586227 2.72178415 63.06908929 2.67278825 84 3 C84 3.33 84 3.66 84 4 C78.6006229 5.11184945 73.35026941 5.17737283 67.86328125 5.203125 C66.38557755 5.21344254 66.38557755 5.21344254 64.87802124 5.22396851 C61.68947674 5.24115818 58.50108847 5.24743075 55.3125 5.25 C54.23352448 5.25167175 53.15454895 5.25334351 52.0428772 5.25506592 C7.88876858 5.25917905 7.88876858 5.25917905 0 0 Z " fill="#C2B6A3" transform="translate(460,828)"/>
<path d="M0 0 C0.33 0 0.66 0 1 0 C1 13.2 1 26.4 1 40 C-14.37142727 43.84285682 -28.16592137 45.34252298 -43.8125 45.625 C-45.58400142 45.66328169 -47.35548626 45.70233889 -49.12695312 45.7421875 C-53.41783037 45.83705004 -57.708794 45.92147313 -62 46 C-61.67 45.34 -61.34 44.68 -61 44 C-60.00258789 43.9498877 -59.00517578 43.89977539 -57.97753906 43.84814453 C-54.21983419 43.6574982 -50.46265855 43.45770499 -46.70556641 43.25537109 C-45.09013386 43.16960444 -43.4745736 43.08620493 -41.85888672 43.00537109 C-30.01063379 42.41038753 -18.57900924 41.25871137 -7.03515625 38.3671875 C-5 38 -5 38 0 38 C0 25.46 0 12.92 0 0 Z " fill="#BAAC97" transform="translate(730,589)"/>
<path d="M0 0 C0.33 0 0.66 0 1 0 C4.0349122 20.24256974 4.64714392 40.44055973 3.5625 60.875 C3.52334473 61.61806396 3.48418945 62.36112793 3.44384766 63.12670898 C3.22079173 66.82935196 2.84339994 70.38542883 2 74 C1.67 74 1.34 74 1 74 C0.85418795 67.1580273 0.71226279 60.31598104 0.57275391 53.47387695 C0.5250981 51.15745313 0.47662613 48.84104591 0.42724609 46.5246582 C0.09730486 31.0140534 -0.07310508 15.51416352 0 0 Z " fill="#C1B4A0" transform="translate(834,464)"/>
<path d="M0 0 C0.33 0 0.66 0 1 0 C1 22.77 1 45.54 1 69 C0.67 69 0.34 69 0 69 C0 66.69 0 64.38 0 62 C-0.66 62 -1.32 62 -2 62 C-2.90682846 46.95636359 -3.22792546 32.0626963 -2.625 17 C-2.59422363 16.11521973 -2.56344727 15.23043945 -2.53173828 14.31884766 C-2.29865331 9.2306317 -1.61600875 4.83488798 0 0 Z " fill="#C0B49F" transform="translate(170,473)"/>
<path d="M0 0 C2.475 0.495 2.475 0.495 5 1 C5 1.99 5 2.98 5 4 C0.55020384 5.10186999 -3.81516497 5.16133878 -8.37109375 5.16796875 C-9.17104263 5.17129715 -9.97099152 5.17462555 -10.79518127 5.17805481 C-12.48201932 5.18310261 -14.1688673 5.1854638 -15.85571289 5.18530273 C-18.42546132 5.18748975 -20.99478049 5.20566951 -23.56445312 5.22460938 C-25.20833187 5.22754371 -26.85221265 5.22952824 -28.49609375 5.23046875 C-29.2587706 5.23765427 -30.02144745 5.24483978 -30.80723572 5.25224304 C-35.25899816 5.23332993 -38.80293644 4.67575369 -43 3 C-43 2.67 -43 2.34 -43 2 C-28.81 2 -14.62 2 0 2 C0 1.34 0 0.68 0 0 Z " fill="#BFB29E" transform="translate(487,632)"/>
<path d="M0 0 C0.33 0 0.66 0 1 0 C1.0497947 5.65591174 1.08590496 11.31169313 1.10986328 16.96777344 C1.11986133 18.88804348 1.13346421 20.80829853 1.15087891 22.72851562 C1.17540192 25.50394411 1.18654531 28.27916965 1.1953125 31.0546875 C1.20563507 31.8998996 1.21595764 32.74511169 1.22659302 33.61593628 C1.22769815 39.61557893 0.36770397 45.16290579 -1 51 C-1.33 51 -1.66 51 -2 51 C-2 34.83 -2 18.66 -2 2 C-1.34 2 -0.68 2 0 2 C0 1.34 0 0.68 0 0 Z " fill="#C1B6A2" transform="translate(732,537)"/>
<path d="M0 0 C3.95360706 0.59126016 6.86770579 1.79665746 10.3125 3.8125 C11.19550781 4.31394531 12.07851563 4.81539062 12.98828125 5.33203125 C13.65214844 5.88246094 14.31601562 6.43289063 15 7 C15 8.32 15 9.64 15 11 C-4.63095238 11.30357143 -4.63095238 11.30357143 -13 8 C-13 7.67 -13 7.34 -13 7 C-7.21408489 6.89522488 -1.70690634 7.00749455 4 8 C4.44290923 3.99653977 4.44290923 3.99653977 2 1.75 C1.34 1.1725 0.68 0.595 0 0 Z " fill="#C0B39E" transform="translate(628,626)"/>
<path d="M0 0 C0.33 0 0.66 0 1 0 C1.20638953 23.78877436 1.20638953 23.78877436 0 34 C-0.66 34 -1.32 34 -2 34 C-2 41.59 -2 49.18 -2 57 C-2.33 57 -2.66 57 -3 57 C-3.3611148 37.72758077 -2.94426842 19.10642274 0 0 Z " fill="#BCAF9A" transform="translate(191,461)"/>
<path d="M0 0 C0.87205078 0.32484375 0.87205078 0.32484375 1.76171875 0.65625 C1.03726563 1.24792969 0.3128125 1.83960938 -0.43359375 2.44921875 C-2.42878325 4.07995363 -4.42220466 5.71285359 -6.4140625 7.34765625 C-7.96552114 8.61586103 -9.52097198 9.87942689 -11.09375 11.12109375 C-14.46668788 13.80678424 -17.13009533 16.78725974 -19.859375 20.09375 C-21.23828125 21.65625 -21.23828125 21.65625 -23.42578125 23.28125 C-25.75231574 25.0462072 -26.78752596 27.15039996 -28.23828125 29.65625 C-28.89828125 29.98625 -29.55828125 30.31625 -30.23828125 30.65625 C-29.94953125 30.099375 -29.66078125 29.5425 -29.36328125 28.96875 C-28.19122395 26.72754902 -28.19122395 26.72754902 -27.609375 24.47265625 C-25.5822134 20.30860065 -22.47073556 17.48771422 -19.17578125 14.28125 C-18.5005542 13.61802734 -17.82532715 12.95480469 -17.12963867 12.27148438 C-3.88853179 -0.59719162 -3.88853179 -0.59719162 0 0 Z " fill="#BEB29E" transform="translate(575.23828125,389.34375)"/>
<path d="M0 0 C1.70884005 1.62339805 3.37446717 3.29319053 5 5 C5 5.66 5 6.32 5 7 C5.66 7 6.32 7 7 7 C8.33984375 8.43359375 8.33984375 8.43359375 9.9375 10.4375 C16.19437059 17.80467122 24.07296366 23.53915275 32 29 C30.390625 29.76953125 30.390625 29.76953125 28 30 C25.72584165 28.64198575 23.80393878 27.32131494 21.75 25.6875 C21.19570313 25.27048828 20.64140625 24.85347656 20.0703125 24.42382812 C18.66702681 23.34025654 17.3275321 22.17515813 16 21 C16 20.34 16 19.68 16 19 C15.15115234 18.64035156 15.15115234 18.64035156 14.28515625 18.2734375 C11.52697289 16.73639857 9.6479272 14.87656882 7.4375 12.625 C6.29087891 11.46871094 6.29087891 11.46871094 5.12109375 10.2890625 C0 4.76243094 0 4.76243094 0 0 Z " fill="#C1B4A1" transform="translate(547,589)"/>
<path d="M0 0 C4.27602307 1.45933998 7.38312225 3.60500574 10.9375 6.375 C11.76544067 7.01961182 11.76544067 7.01961182 12.61010742 7.67724609 C19.25389865 12.90249056 25.63265794 18.44408834 32 24 C31.01 24.33 30.02 24.66 29 25 C26.94439635 23.48599252 25.12658373 21.96521784 23.25 20.25 C17.67324108 15.31288086 11.87731531 10.86985315 5.76269531 6.61816406 C1.1047975 3.31439251 1.1047975 3.31439251 0 0 Z " fill="#C2B6A2" transform="translate(696,243)"/>
<path d="M0 0 C1.37488287 -0.02749766 2.74993391 -0.0466164 4.125 -0.0625 C5.27355469 -0.07990234 5.27355469 -0.07990234 6.4453125 -0.09765625 C9.36019734 0.01376901 12.13379165 0.47245151 15 1 C14.48594306 8.68897931 13.9234499 16.34855794 13 24 C12.34 24 11.68 24 11 24 C11 25.98 11 27.96 11 30 C10.67 30 10.34 30 10 30 C9.63200047 20.53423442 10.77085408 11.36126309 12 2 C11.30132813 2.02320313 10.60265625 2.04640625 9.8828125 2.0703125 C8.97273437 2.08835937 8.06265625 2.10640625 7.125 2.125 C6.22007812 2.14820313 5.31515625 2.17140625 4.3828125 2.1953125 C2 2 2 2 0 0 Z " fill="#BCAF99" transform="translate(719,375)"/>
<path d="M0 0 C0 0.99 0 1.98 0 3 C-3.13498292 4.85776765 -5.37471432 5.20140476 -9 5 C-8.67 4.34 -8.34 3.68 -8 3 C-9.53720703 3.2165625 -9.53720703 3.2165625 -11.10546875 3.4375 C-12.46612154 3.62517625 -13.82679999 3.81266642 -15.1875 4 C-16.19780273 4.14308594 -16.19780273 4.14308594 -17.22851562 4.2890625 C-20.84664577 4.78324613 -24.34796401 5.11346131 -28 5 C-25.35261084 3.5393715 -24.10551666 3 -21 3 C-21 2.34 -21 1.68 -21 1 C-18.95928485 0.66089006 -16.91737379 0.32897296 -14.875 0 C-13.73804688 -0.185625 -12.60109375 -0.37125 -11.4296875 -0.5625 C-3.21960073 -1.60980036 -3.21960073 -1.60980036 0 0 Z " fill="#C6BAA7" transform="translate(642,368)"/>
<path d="M0 0 C4.7244135 2.39669152 7.47037242 5.60131359 10.75 9.625 C15.05949089 14.80939531 19.50134341 19.6386571 24.453125 24.23046875 C26 26 26 26 26 29 C25.34 29 24.68 29 24 29 C22.58984375 27.56640625 22.58984375 27.56640625 20.9375 25.5625 C18.27560059 22.42013327 15.51758046 19.49316632 12.5625 16.625 C7.97678731 12.09444193 3.67989926 7.30426897 0 2 C0 1.34 0 0.68 0 0 Z " fill="#C1B49F" transform="translate(259,709)"/>
<path d="M0 0 C0.33 0 0.66 0 1 0 C1 17.16 1 34.32 1 52 C0.67 52 0.34 52 0 52 C-0.28639886 46.25259947 -0.57118582 40.50512216 -0.85449219 34.75756836 C-0.95105619 32.80311943 -1.04805735 30.84869204 -1.14550781 28.89428711 C-1.28566116 26.08192432 -1.42423211 23.26948729 -1.5625 20.45703125 C-1.60624756 19.58601273 -1.64999512 18.7149942 -1.69506836 17.81758118 C-1.88751568 13.87422622 -2.05657432 9.94959477 -2 6 C-1.67 6 -1.34 6 -1 6 C-0.67 4.02 -0.34 2.04 0 0 Z " fill="#D0C6B5" transform="translate(593,477)"/>
<path d="M0 0 C0.84691406 0.33378662 0.84691406 0.33378662 1.7109375 0.67431641 C1.24308838 1.00117432 0.77523926 1.32803223 0.29321289 1.66479492 C-12.20910217 10.384228 -12.20910217 10.384228 -24.2890625 19.67431641 C-24.9490625 19.34431641 -25.6090625 19.01431641 -26.2890625 18.67431641 C-22.64260224 13.26678159 -17.5546558 9.97770944 -12.2890625 6.29931641 C-11.38671875 5.64576172 -10.484375 4.99220703 -9.5546875 4.31884766 C-8.68328125 3.70654297 -7.811875 3.09423828 -6.9140625 2.46337891 C-6.12257813 1.90344238 -5.33109375 1.34350586 -4.515625 0.76660156 C-2.2890625 -0.32568359 -2.2890625 -0.32568359 0 0 Z " fill="#C1B5A1" transform="translate(327.2890625,219.32568359375)"/>
<path d="M0 0 C2.0625 0.4375 2.0625 0.4375 4 1 C-3.76260692 7.71360599 -11.5824799 14.11279656 -20 20 C-20.66 19.67 -21.32 19.34 -22 19 C-17.88063566 14.68602002 -13.40322655 10.97425506 -8.75 7.25 C-7.30695572 6.08895909 -5.86423 4.92752209 -4.421875 3.765625 C-3.47199707 3.00427246 -3.47199707 3.00427246 -2.50292969 2.22753906 C-1.04614319 1.07959294 -1.04614319 1.07959294 0 0 Z " fill="#C2B7A1" transform="translate(718,756)"/>
<path d="M0 0 C8.91 0 17.82 0 27 0 C22.79003896 2.80664069 19.11475312 3.1297726 14.13671875 3.09765625 C12.80737305 3.09282227 12.80737305 3.09282227 11.45117188 3.08789062 C10.53916016 3.07951172 9.62714844 3.07113281 8.6875 3.0625 C7.75615234 3.05798828 6.82480469 3.05347656 5.86523438 3.04882812 C3.57675627 3.03709234 1.28841192 3.02067363 -1 3 C-0.67 2.01 -0.34 1.02 0 0 Z " fill="#C0B4A0" transform="translate(282,632)"/>
<path d="M0 0 C2.63103933 2.37163424 4.19036191 4.86447625 5.8828125 7.96484375 C6.41003906 8.92970703 6.93726563 9.89457031 7.48046875 10.88867188 C8.02316406 11.89478516 8.56585937 12.90089844 9.125 13.9375 C9.67542969 14.93974609 10.22585938 15.94199219 10.79296875 16.97460938 C15.22804507 25.14190593 15.22804507 25.14190593 16 29 C12.40615133 27.80205044 12.2736911 27.17914643 10.625 23.921875 C10.19703125 23.09042969 9.7690625 22.25898438 9.328125 21.40234375 C8.88984375 20.52707031 8.4515625 19.65179688 8 18.75 C7.12621461 17.03583865 6.25124692 15.32227937 5.375 13.609375 C4.96636719 12.80177734 4.55773437 11.99417969 4.13671875 11.16210938 C2.95539451 8.84443363 2.95539451 8.84443363 1.1875 6.140625 C0 4 0 4 0 0 Z " fill="#C0B4A0" transform="translate(704,422)"/>
<path d="M0 0 C0.33 0 0.66 0 1 0 C1.26928571 28.46142857 1.26928571 28.46142857 -2 35 C-2.66 34.34 -3.32 33.68 -4 33 C-3.89103283 30.46793702 -3.66431947 28.08819594 -3.3203125 25.5859375 C-3.18289139 24.49147812 -3.18289139 24.49147812 -3.04269409 23.37490845 C-2.74712056 21.04014932 -2.43625255 18.70771556 -2.125 16.375 C-1.92216819 14.79439997 -1.72033248 13.21367178 -1.51953125 11.6328125 C-1.0245756 7.75362552 -0.51589256 3.87645581 0 0 Z " fill="#BFB39E" transform="translate(726,423)"/>
<path d="M0 0 C2.87188644 2.68219018 4.87413393 5.20021658 6.7265625 8.66015625 C7.438125 9.9740332 7.438125 9.9740332 8.1640625 11.31445312 C8.88722656 12.67473633 8.88722656 12.67473633 9.625 14.0625 C10.59528367 15.86646161 11.56659475 17.66987109 12.5390625 19.47265625 C12.96396973 20.26937744 13.38887695 21.06609863 13.82666016 21.88696289 C15.06827964 24.19019246 15.06827964 24.19019246 17 27 C16.625 29.1875 16.625 29.1875 16 31 C12.05128166 24.61142317 8.31138677 18.10488843 4.625 11.5625 C4.17205566 10.76924316 3.71911133 9.97598633 3.25244141 9.15869141 C2.83140137 8.4063623 2.41036133 7.6540332 1.9765625 6.87890625 C1.59580566 6.2041626 1.21504883 5.52941895 0.82275391 4.83422852 C0 3 0 3 0 0 Z " fill="#C2B6A1" transform="translate(220,647)"/>
<path d="M0 0 C3.76603869 1.56282982 6.13639151 3.9063475 8.984375 6.7890625 C9.44483215 7.25234955 9.90528931 7.7156366 10.37969971 8.19296265 C11.84125078 9.66565898 13.29567168 11.14517403 14.75 12.625 C15.74302611 13.62806322 16.73651089 14.63067257 17.73046875 15.6328125 C20.15897941 18.08330835 22.58114675 20.5399667 25 23 C24.67 23.66 24.34 24.32 24 25 C20.74957109 23.60493574 18.92628208 22.03216606 16.6875 19.3125 C14.37444553 16.56945463 12.02265589 13.98792657 9.4375 11.5 C5.84557165 7.98121046 2.90358436 4.09479846 0 0 Z " fill="#BDAF9A" transform="translate(730,270)"/>
<path d="M0 0 C7.52338162 -0.31644087 14.23328814 0.86539579 21.5625 2.5 C22.66658203 2.73847656 23.77066406 2.97695312 24.90820312 3.22265625 C27.60737458 3.80689249 30.30441124 4.39948965 33 5 C33 5.33 33 5.66 33 6 C23.71417006 6.44218238 15.07018429 4.76773893 6 3 C6 2.34 6 1.68 6 1 C4.02 1 2.04 1 0 1 C0 0.67 0 0.34 0 0 Z " fill="#C5B9A6" transform="translate(556,189)"/>
<path d="M0 0 C5.41355988 2.45981097 7.71815461 6.5710204 10.75 11.4375 C11.24371094 12.20126953 11.73742187 12.96503906 12.24609375 13.75195312 C14.41169916 17.16055671 16.19041972 20.00395189 17 24 C16.34 24 15.68 24 15 24 C13.50366211 22.11987305 13.50366211 22.11987305 11.77734375 19.51171875 C11.15666016 18.57779297 10.53597656 17.64386719 9.89648438 16.68164062 C9.25001953 15.69357422 8.60355469 14.70550781 7.9375 13.6875 C7.28716797 12.71103516 6.63683594 11.73457031 5.96679688 10.72851562 C1.14034598 3.42103795 1.14034598 3.42103795 0 0 Z " fill="#BEB29E" transform="translate(791,308)"/>
<path d="M0 0 C0.33 0.66 0.66 1.32 1 2 C-0.2797034 4.32153252 -1.59959371 6.48530611 -3.0625 8.6875 C-3.4742749 9.3180127 -3.8860498 9.94852539 -4.31030273 10.59814453 C-7.24732885 15.03145633 -10.37664984 19.0979306 -14 23 C-14.33 22.01 -14.66 21.02 -15 20 C-13.453125 17.51171875 -13.453125 17.51171875 -11.25 14.6875 C-8.3265853 10.91755694 -6.11813575 7.26644438 -4 3 C-1.8125 1.125 -1.8125 1.125 0 0 Z " fill="#C1B5A0" transform="translate(700,598)"/>
<path d="M0 0 C2.69548397 2.33976378 3.72905579 4.41723527 4.859375 7.78125 C5.17003906 8.70550781 5.48070312 9.62976563 5.80078125 10.58203125 C6.27064453 12.02642578 6.27064453 12.02642578 6.75 13.5 C7.07871094 14.46292969 7.40742187 15.42585938 7.74609375 16.41796875 C8.05160156 17.34222656 8.35710938 18.26648438 8.671875 19.21875 C8.9512793 20.06373047 9.23068359 20.90871094 9.51855469 21.77929688 C10 24 10 24 9 27 C-0.62242052 9.18070273 -0.62242052 9.18070273 0 0 Z " fill="#BEB19C" transform="translate(813,387)"/>
<path d="M0 0 C5.03627283 3.02933704 8.63087103 6.54573158 12.4375 11 C12.99115234 11.61617188 13.54480469 12.23234375 14.11523438 12.8671875 C14.63279297 13.46789062 15.15035156 14.06859375 15.68359375 14.6875 C16.15337646 15.22761719 16.62315918 15.76773437 17.10717773 16.32421875 C18 18 18 18 17.64477539 20.20703125 C17.43199951 20.79871094 17.21922363 21.39039063 17 22 C16.443125 21.31035156 15.88625 20.62070312 15.3125 19.91015625 C10.82829064 14.38821601 6.27196023 8.99297078 1.43359375 3.77734375 C0 2 0 2 0 0 Z " fill="#BCAF9A" transform="translate(769,281)"/>
<path d="M0 0 C3.98544997 1.63432121 6.84491594 4.40523933 9.9375 7.3125 C10.44990234 7.78623047 10.96230469 8.25996094 11.49023438 8.74804688 C14.73423949 11.76122062 17.88665126 14.85224961 21 18 C12.4808427 16.60951685 4.96662367 7.59475527 0 1 C0 0.67 0 0.34 0 0 Z " fill="#C1B5A0" transform="translate(277,758)"/>
<path d="M0 0 C-3.61663572 2.04298506 -7.44940446 3.07242346 -11.4375 4.125 C-12.09298828 4.30675781 -12.74847656 4.48851562 -13.42382812 4.67578125 C-17.0299412 5.63789367 -20.26701871 6.21577927 -24 6 C-21.26720765 1.90081148 -18.74030779 1.73860991 -14.109375 0.5625 C-9.3848912 -0.29218049 -4.7807223 -0.24967022 0 0 Z " fill="#C0B39F" transform="translate(444,173)"/>
<path d="M0 0 C1.155 0.391875 2.31 0.78375 3.5 1.1875 C10.63136502 3.56843728 17.82002646 5.77112478 25 8 C25 8.33 25 8.66 25 9 C18.60190082 9.67348412 13.88870064 8.5216713 8 6.1875 C6.9934436 5.79667236 6.9934436 5.79667236 5.96655273 5.39794922 C4.0625 4.60546875 4.0625 4.60546875 1 3 C0.67 2.01 0.34 1.02 0 0 Z " fill="#C1B49E" transform="translate(589,624)"/>
<path d="M0 0 C2 2 2 2 2.22705078 5.43994141 C2.22673369 6.91051979 2.21540987 8.38112142 2.1953125 9.8515625 C2.1924826 10.62559418 2.18965271 11.39962585 2.18673706 12.19711304 C2.17552754 14.67323157 2.15042203 17.1489905 2.125 19.625 C2.11497118 21.30207812 2.10584516 22.97916189 2.09765625 24.65625 C2.07558574 28.77097223 2.04105102 32.88542511 2 37 C1.01 36.34 0.02 35.68 -1 35 C-1.328125 32.98828125 -1.328125 32.98828125 -1.25 30.3125 C-1.22421875 29.26191406 -1.1984375 28.21132813 -1.171875 27.12890625 C-1.11652169 25.75252485 -1.05893415 24.37623273 -1 23 C-0.96326172 22.0704248 -0.92652344 21.14084961 -0.88867188 20.18310547 C-0.62099528 13.4540134 -0.32146016 6.72672488 0 0 Z " fill="#CBC1AF" transform="translate(189,495)"/>
<path d="M0 0 C0.99 0.33 1.98 0.66 3 1 C2.505 1.763125 2.01 2.52625 1.5 3.3125 C-0.24368308 5.92363751 -0.24368308 5.92363751 0 9 C-0.556875 9.53625 -1.11375 10.0725 -1.6875 10.625 C-4.9428455 13.96832781 -6.85482763 17.88548906 -9 22 C-9.33 22 -9.66 22 -10 22 C-10.71929554 16.76231278 -8.26624125 13.54248062 -5.5625 9.3125 C-4.73018246 7.97543859 -3.89813855 6.63820679 -3.06640625 5.30078125 C-2.38449219 4.21152344 -1.70257812 3.12226562 -1 2 C-0.67 1.34 -0.34 0.68 0 0 Z " fill="#C2B6A2" transform="translate(796,661)"/>
<path d="M0 0 C3.43338073 0.57597019 4.9666725 1.65131895 7.3125 4.1875 C10.24132622 7.26814442 13.29680941 9.99027837 16.6171875 12.640625 C18 14 18 14 19 17 C14.93831292 15.35575077 12.06456388 12.46975146 8.9375 9.5 C6.06155483 6.78869481 3.30230276 4.20153517 0 2 C0 1.34 0 0.68 0 0 Z " fill="#BEB29D" transform="translate(287,740)"/>
<path d="M0 0 C1.14176746 3.42530237 0.83108216 4.31673674 -0.21484375 7.66796875 C-0.48876953 8.56064453 -0.76269531 9.45332031 -1.04492188 10.37304688 C-1.33947266 11.30181641 -1.63402344 12.23058594 -1.9375 13.1875 C-2.22818359 14.12787109 -2.51886719 15.06824219 -2.81835938 16.03710938 C-3.53781887 18.36060971 -4.26529186 20.68128518 -5 23 C-5.66 23 -6.32 23 -7 23 C-7.2944066 18.01058282 -6.25448315 13.90958945 -4.625 9.25 C-4.29242187 8.24259766 -4.29242187 8.24259766 -3.953125 7.21484375 C-2.94863276 4.26636358 -2.23028559 2.23028559 0 0 Z " fill="#BEB19C" transform="translate(824,595)"/>
<path d="M0 0 C1.15699511 3.47098534 0.82954442 4.14733125 -0.43359375 7.44921875 C-0.75263672 8.29677734 -1.07167969 9.14433594 -1.40039062 10.01757812 C-1.91375977 11.33918945 -1.91375977 11.33918945 -2.4375 12.6875 C-2.77587891 13.58017578 -3.11425781 14.47285156 -3.46289062 15.39257812 C-4.30037307 17.59834174 -5.14632974 19.80046176 -6 22 C-6.33 22 -6.66 22 -7 22 C-6.67658015 14.54517252 -5.25296745 7.76371722 -2 1 C-1.34 0.67 -0.68 0.34 0 0 Z " fill="#BFB39F" transform="translate(190,388)"/>
<path d="M0 0 C4.73474097 1.6996506 8.96167111 4.13659027 13.3125 6.625 C14.05306641 7.04523437 14.79363281 7.46546875 15.55664062 7.8984375 C17.37269011 8.92948495 19.18656533 9.96436046 21 11 C21 11.33 21 11.66 21 12 C15.78664656 12.69713447 12.50463211 10.33127429 8.25 7.6875 C7.56550781 7.28337891 6.88101562 6.87925781 6.17578125 6.46289062 C1.13019216 3.39057648 1.13019216 3.39057648 0 0 Z " fill="#C2B6A3" transform="translate(332,800)"/>
<path d="M0 0 C4.45991062 0.53518927 7.06274922 2.19595189 10.625 4.875 C12.03652344 5.92300781 12.03652344 5.92300781 13.4765625 6.9921875 C15.4698223 8.57815582 17.26261199 10.14600877 19 12 C18.01 12.495 18.01 12.495 17 13 C10.87189908 9.77573775 5.09737226 5.6840718 0 1 C0 0.67 0 0.34 0 0 Z " fill="#C1B6A0" transform="translate(321,769)"/>
<path d="M0 0 C7.244298 2.13766171 13.46718285 5.22684019 20 9 C20 9.33 20 9.66 20 10 C12.988 9.68127273 6.88531295 6.73169685 1 3 C0.67 2.01 0.34 1.02 0 0 Z " fill="#C1B49F" transform="translate(641,212)"/>
<path d="M0 0 C0.33 0 0.66 0 1 0 C1.33923576 2.35344806 1.67150534 4.7075484 2 7.0625 C2.09539062 7.71927734 2.19078125 8.37605469 2.2890625 9.05273438 C2.88887674 13.40138763 3.09127093 17.61329071 3 22 C0.72822468 20.22208888 0.03727149 19.14569764 -0.6875 16.3125 C-1.21040483 10.7697088 -1.36284466 5.45137865 0 0 Z " fill="#BEB29E" transform="translate(395,567)"/>
<path d="M0 0 C0 6.78328766 -4.47266715 14.13730917 -9 19 C-8.7333371 11.80010161 -6.25766117 6.79358137 -2 1 C-1.34 0.67 -0.68 0.34 0 0 Z " fill="#BDB09C" transform="translate(541,424)"/>
<path d="M0 0 C-3.22666021 2.52521234 -6.60431967 4.65662251 -10.125 6.75 C-11.17945313 7.38421875 -12.23390625 8.0184375 -13.3203125 8.671875 C-14.20460938 9.11015625 -15.08890625 9.5484375 -16 10 C-16.66 9.67 -17.32 9.34 -18 9 C-13.641505 4.07911855 -6.94681446 -2.55189102 0 0 Z " fill="#C0B4A0" transform="translate(349,208)"/>
<path d="M0 0 C0.33 0.99 0.66 1.98 1 3 C-1.43218059 4.19963643 -3.86970578 5.38484438 -6.3125 6.5625 C-7.00279297 6.90474609 -7.69308594 7.24699219 -8.40429688 7.59960938 C-13.66015625 10.11328125 -13.66015625 10.11328125 -17 9 C-13.67513619 6.25945632 -10.16942114 4.57623951 -6.25 2.8125 C-5.07953125 2.28269531 -3.9090625 1.75289062 -2.703125 1.20703125 C-1.81109375 0.80871094 -0.9190625 0.41039062 0 0 Z " fill="#C1B49F" transform="translate(386,210)"/>
<path d="M0 0 C0 3.46132304 -0.35176518 3.74508628 -2.625 6.13671875 C-3.16640625 6.71357422 -3.7078125 7.29042969 -4.265625 7.88476562 C-4.83796875 8.47966797 -5.4103125 9.07457031 -6 9.6875 C-6.57234375 10.29400391 -7.1446875 10.90050781 -7.734375 11.52539062 C-9.1496339 13.02320629 -10.57397277 14.5124329 -12 16 C-12.33 15.01 -12.66 14.02 -13 13 C-11.21188257 11.01752198 -9.41974481 9.03896272 -7.625 7.0625 C-7.11710938 6.49853516 -6.60921875 5.93457031 -6.0859375 5.35351562 C-2.2265625 1.11328125 -2.2265625 1.11328125 0 0 Z " fill="#BFB29C" transform="translate(762,714)"/>
<path d="M0 0 C0.94488281 -0.00257813 1.88976562 -0.00515625 2.86328125 -0.0078125 C5.57345736 0.119637 8.04723585 0.51903774 10.6875 1.125 C10.6875 1.455 10.6875 1.785 10.6875 2.125 C7.3875 2.455 4.0875 2.785 0.6875 3.125 C0.6875 3.455 0.6875 3.785 0.6875 4.125 C-1.6225 4.125 -3.9325 4.125 -6.3125 4.125 C-6.6425 3.135 -6.9725 2.145 -7.3125 1.125 C-4.74519226 -0.15865387 -2.86597003 -0.00775635 0 0 Z " fill="#B9AC97" transform="translate(383.3125,367.875)"/>
<path d="M0 0 C0 3.28663817 -0.40036852 3.96053895 -2.1875 6.57421875 C-2.63867188 7.24130859 -3.08984375 7.90839844 -3.5546875 8.59570312 C-4.03164062 9.28599609 -4.50859375 9.97628906 -5 10.6875 C-5.47695312 11.38939453 -5.95390625 12.09128906 -6.4453125 12.81445312 C-7.62403928 14.54718149 -8.81122337 16.27415107 -10 18 C-10.59667969 16.18408203 -10.59667969 16.18408203 -11 14 C-9.453125 11.0546875 -9.453125 11.0546875 -7.25 7.875 C-6.17492187 6.29332031 -6.17492187 6.29332031 -5.078125 4.6796875 C-3 2 -3 2 0 0 Z " fill="#BDB19B" transform="translate(228,316)"/>
<path d="M0 0 C1.98497896 5.95493687 -1.55238099 13.41942866 -4 19 C-4.99 19.33 -5.98 19.66 -7 20 C-5.07443364 13.14381674 -2.7527517 6.56747868 0 0 Z " fill="#BEB19C" transform="translate(213,382)"/>
<path d="M0 0 C4.62 0 9.24 0 14 0 C14 0.66 14 1.32 14 2 C16.64 2 19.28 2 22 2 C21.67 2.66 21.34 3.32 21 4 C18.06121273 3.71840367 15.12439587 3.42518615 12.1875 3.125 C11.35412109 3.04636719 10.52074219 2.96773437 9.66210938 2.88671875 C8.45844727 2.76103516 8.45844727 2.76103516 7.23046875 2.6328125 C6.49207764 2.55949707 5.75368652 2.48618164 4.99291992 2.41064453 C3 2 3 2 0 0 Z " fill="#B8AA95" transform="translate(460,828)"/>
<path d="M0 0 C4.03703769 1.34567923 4.91101516 3.36652273 7.25 6.875 C8.34054687 8.47988281 8.34054687 8.47988281 9.453125 10.1171875 C9.96359375 11.06851563 10.4740625 12.01984375 11 13 C10.67 13.99 10.34 14.98 10 16 C0 3.42465753 0 3.42465753 0 0 Z " fill="#C0B39F" transform="translate(611,604)"/>
<path d="M0 0 C4.31730413 0.47409648 6.33647461 3.03396703 9.25 6.0625 C10.14203125 6.98160156 11.0340625 7.90070313 11.953125 8.84765625 C12.62859375 9.55792969 13.3040625 10.26820313 14 11 C13.67 11.99 13.34 12.98 13 14 C10.83031809 11.85714108 8.66416525 9.71091768 6.5 7.5625 C5.87996094 6.95083984 5.25992188 6.33917969 4.62109375 5.70898438 C4.03457031 5.12568359 3.44804688 4.54238281 2.84375 3.94140625 C2.02680664 3.13231812 2.02680664 3.13231812 1.19335938 2.30688477 C0 1 0 1 0 0 Z " fill="#BDB09C" transform="translate(753,265)"/>
<path d="M0 0 C0.33 0 0.66 0 1 0 C1.19294408 4.82360189 0.75747614 8.49646738 -1 13 C-1.66 13 -2.32 13 -3 13 C-3.33 15.31 -3.66 17.62 -4 20 C-4.33 20 -4.66 20 -5 20 C-4.52432875 12.74601342 -2.70533406 6.73187777 0 0 Z " fill="#B8AB95" transform="translate(603,415)"/>
<path d="M0 0 C0 0.33 0 0.66 0 1 C-2.64 1 -5.28 1 -8 1 C-8 1.66 -8 2.32 -8 3 C-12.62 3 -17.24 3 -22 3 C-17.10935595 -1.89064405 -6.47424041 -0.09711361 0 0 Z " fill="#B8AA94" transform="translate(478,188)"/>
<path d="M0 0 C3.23387892 2.95267206 5.22245249 5.87922748 7.25 9.75 C7.77078125 10.73484375 8.2915625 11.7196875 8.828125 12.734375 C9.21484375 13.48203125 9.6015625 14.2296875 10 15 C9.01 15 8.02 15 7 15 C5.17578125 12.734375 5.17578125 12.734375 3.3125 9.75 C2.68988281 8.77546875 2.06726563 7.8009375 1.42578125 6.796875 C0 4 0 4 0 0 Z " fill="#BFB29D" transform="translate(217,683)"/>
<path d="M0 0 C1.92859455 2.89289183 2.43725716 4.35497915 3.0703125 7.66796875 C3.33134766 9.00698242 3.33134766 9.00698242 3.59765625 10.37304688 C3.77167969 11.30181641 3.94570312 12.23058594 4.125 13.1875 C4.30675781 14.12787109 4.48851562 15.06824219 4.67578125 16.03710938 C5.12326865 18.35697829 5.56442242 20.67787059 6 23 C5.34 23 4.68 23 4 23 C3.67 20.36 3.34 17.72 3 15 C2.34 15 1.68 15 1 15 C0.67 10.05 0.34 5.1 0 0 Z " fill="#B4A68F" transform="translate(174,567)"/>
<path d="M0 0 C4.12172083 3.76843047 7.63068221 7.88904305 10 13 C9.67 13.66 9.34 14.32 9 15 C5.17649939 11.60133279 2.28703425 7.56469541 0 3 C0 2.01 0 1.02 0 0 Z " fill="#BFB19D" transform="translate(781,328)"/>
<path d="M0 0 C6 0.66666667 12 1.33333333 18 2 C18 2.66 18 3.32 18 4 C20.97 4.495 20.97 4.495 24 5 C20.69470655 6.09180878 18.57913968 5.88297902 15.234375 5.00390625 C14.34492187 4.77509766 13.45546875 4.54628906 12.5390625 4.31054688 C11.61867188 4.06369141 10.69828125 3.81683594 9.75 3.5625 C8.34621094 3.19801758 8.34621094 3.19801758 6.9140625 2.82617188 C4.6070251 2.22587133 2.30264561 1.61689335 0 1 C0 0.67 0 0.34 0 0 Z " fill="#B6A790" transform="translate(581,173)"/>
<path d="M0 0 C-2.26053899 2.52861573 -4.39900064 3.83856528 -7.5 5.1875 C-8.2734375 5.53167969 -9.046875 5.87585938 -9.84375 6.23046875 C-12 7 -12 7 -15 7 C-15 6.34 -15 5.68 -15 5 C-13.06891037 3.96709159 -11.129882 2.94901328 -9.1875 1.9375 C-8.10855469 1.36902344 -7.02960937 0.80054688 -5.91796875 0.21484375 C-3 -1 -3 -1 0 0 Z " fill="#C0B39E" transform="translate(667,817)"/>
<path d="M0 0 C3.57104439 1.87949705 5.54744301 3.17053157 7 7 C7.66 7 8.32 7 9 7 C10.625 9 10.625 9 12 11 C11.67 11.66 11.34 12.32 11 13 C7.1295993 9.84967385 3.33599175 6.72846137 0 3 C0 2.01 0 1.02 0 0 Z " fill="#BFB29D" transform="translate(667,370)"/>
<path d="M0 0 C3 1 3 1 4.16796875 2.671875 C7.55343511 9.57251908 7.55343511 9.57251908 7 14 C5.5 12.625 5.5 12.625 4 11 C4 10.34 4 9.68 4 9 C3.34 9 2.68 9 2 9 C1.34 6.03 0.68 3.06 0 0 Z " fill="#BEB29E" transform="translate(822,359)"/>
<path d="M0 0 C-0.99 1.485 -0.99 1.485 -2 3 C-4.24658203 3.2487793 -4.24658203 3.2487793 -7.0078125 3.07421875 C-7.99394531 3.01943359 -8.98007812 2.96464844 -9.99609375 2.90820312 C-11.02863281 2.83537109 -12.06117188 2.76253906 -13.125 2.6875 C-14.16527344 2.62626953 -15.20554687 2.56503906 -16.27734375 2.50195312 C-18.85273 2.34837505 -21.42638232 2.18048829 -24 2 C-24 1.67 -24 1.34 -24 1 C-15.98866917 0.40891367 -8.03770278 -0.14101233 0 0 Z " fill="#D0C6B6" transform="translate(552,829)"/>
<path d="M0 0 C0.33 0 0.66 0 1 0 C0.85899143 2.27113803 0.71203245 4.54190725 0.5625 6.8125 C0.48128906 8.07707031 0.40007813 9.34164062 0.31640625 10.64453125 C0 14 0 14 -1 17 C-1.66 17 -2.32 17 -3 17 C-3.33 17.66 -3.66 18.32 -4 19 C-2.89309248 12.59406714 -1.66054831 6.28636144 0 0 Z " fill="#BAAD98" transform="translate(847,583)"/>
<path d="M0 0 C0.33 0 0.66 0 1 0 C1.25485425 3.26936494 1.47442831 6.54016741 1.6875 9.8125 C1.76033203 10.74126953 1.83316406 11.67003906 1.90820312 12.62695312 C1.96298828 13.51962891 2.01777344 14.41230469 2.07421875 15.33203125 C2.13182373 16.15421143 2.18942871 16.9763916 2.2487793 17.82348633 C1.94044082 20.52106974 1.07168402 21.32607931 -1 23 C-1.1567564 15.28410183 -0.67453101 7.68483539 0 0 Z " fill="#D1C7B7" transform="translate(834,525)"/>
<path d="M0 0 C5.08335725 0.15404113 7.35754718 3.02068432 10.64453125 6.50390625 C11.09183594 6.99761719 11.53914062 7.49132812 12 8 C11.67 8.99 11.34 9.98 11 11 C9.16365304 9.35742342 7.3308593 7.71117305 5.5 6.0625 C4.97535156 5.59392578 4.45070313 5.12535156 3.91015625 4.64257812 C2.5878256 3.44904592 1.29166061 2.22665821 0 1 C0 0.67 0 0.34 0 0 Z " fill="#BFB29E" transform="translate(739,252)"/>
<path d="M0 0 C2.8551592 4.2827388 3.11672494 7.14458058 3.0625 12.1875 C3.05347656 13.27417969 3.04445312 14.36085938 3.03515625 15.48046875 C3.02355469 16.31191406 3.01195312 17.14335938 3 18 C-0.66829266 12.49756101 -0.12789125 6.39456234 0 0 Z " fill="#BAAD97" transform="translate(191,547)"/>
<path d="M0 0 C0.33 0 0.66 0 1 0 C1.61279038 4.90232302 -0.22617142 9.02943602 -3 13 C-3.99 13.33 -4.98 13.66 -6 14 C-2.99633316 4.22210581 -2.99633316 4.22210581 0 0 Z " fill="#BCB09B" transform="translate(611,397)"/>
<path d="M0 0 C0.99 0.33 1.98 0.66 3 1 C2.40917986 2.48454806 1.80187345 3.96254351 1.1875 5.4375 C0.85105469 6.26121094 0.51460937 7.08492187 0.16796875 7.93359375 C-1 10 -1 10 -4 11 C-3.39301257 6.87248551 -1.96189209 3.6678852 0 0 Z " fill="#C0B5A1" transform="translate(712,574)"/>
<path d="M0 0 C-5.54891215 2.81849506 -9.741346 4.5326514 -16 4 C-13.71185277 1.71185277 -12.19248378 1.24548839 -9.125 0.3125 C-8.26132812 0.04050781 -7.39765625 -0.23148438 -6.5078125 -0.51171875 C-3.91305068 -1.01692938 -2.469215 -0.85561171 0 0 Z " fill="#BEB09C" transform="translate(424,199)"/>
<path d="M0 0 C3 2 3 2 3.765625 4.49609375 C3.92546875 5.46675781 4.0853125 6.43742188 4.25 7.4375 C4.50523437 8.88962891 4.50523437 8.88962891 4.765625 10.37109375 C5 13 5 13 4 16 C3.32586789 14.08594633 2.6609668 12.16863974 2 10.25 C1.62875 9.18265625 1.2575 8.1153125 0.875 7.015625 C0 4 0 4 0 0 Z " fill="#BCAE97" transform="translate(199,590)"/>
<path d="M0 0 C5.45479185 0.56820748 9.91059256 1.94637945 15 4 C15 4.33 15 4.66 15 5 C10.17639811 5.19294408 6.50353262 4.75747614 2 3 C2 2.34 2 1.68 2 1 C1.34 0.67 0.68 0.34 0 0 Z " fill="#BDAF9B" transform="translate(608,200)"/>
<path d="M0 0 C0 0.66 0 1.32 0 2 C-1.61992165 2.86375896 -3.24611861 3.71575854 -4.875 4.5625 C-6.23238281 5.27599609 -6.23238281 5.27599609 -7.6171875 6.00390625 C-8.40351563 6.33261719 -9.18984375 6.66132813 -10 7 C-10.66 6.67 -11.32 6.34 -12 6 C-8.90026327 1.3503949 -5.52759351 0 0 0 Z " fill="#C0B49F" transform="translate(362,200)"/>
<path d="M0 0 C0.66 0.33 1.32 0.66 2 1 C-0.80472516 4.29967665 -4.16918209 6.08459104 -8 8 C-8.99 7.67 -9.98 7.34 -11 7 C-7.53252172 4.22601737 -3.93597489 2.04087587 0 0 Z " fill="#C1B39D" transform="translate(680,808)"/>
<path d="M0 0 C0.33 0 0.66 0 1 0 C1.797837 6.69613196 2.12910853 13.25766581 2 20 C-0.75942175 17.30442091 -0.99899659 16.05259984 -1.07421875 12.109375 C-0.96182592 10.65487958 -0.83240522 9.20161688 -0.6875 7.75 C-0.62626953 7.00492187 -0.56503906 6.25984375 -0.50195312 5.4921875 C-0.3492857 3.66017845 -0.17660246 1.82985684 0 0 Z " fill="#D3CABB" transform="translate(855,465)"/>
<path d="M0 0 C0.66 0 1.32 0 2 0 C2.33808686 2.06172613 2.67027361 4.1244203 3 6.1875 C3.185625 7.33605469 3.37125 8.48460937 3.5625 9.66796875 C3.93489477 12.50415393 4.08596021 15.14719564 4 18 C0.77614705 12.47339494 -0.31675402 6.33508046 0 0 Z " fill="#CCC1AF" transform="translate(825,424)"/>
<path d="M0 0 C5.08335725 0.15404113 7.35754718 3.02068432 10.64453125 6.50390625 C11.09183594 6.99761719 11.53914063 7.49132812 12 8 C11.67 8.66 11.34 9.32 11 10 C9.16375669 8.52444734 7.3310715 7.04446569 5.5 5.5625 C4.4790625 4.73878906 3.458125 3.91507812 2.40625 3.06640625 C1.6121875 2.38449219 0.818125 1.70257813 0 1 C0 0.67 0 0.34 0 0 Z " fill="#C1B5A0" transform="translate(379,372)"/>
<path d="M0 0 C3.23861303 1.44424635 5.61969163 3.25772247 8.25 5.625 C8.95640625 6.25664062 9.6628125 6.88828125 10.390625 7.5390625 C10.92171875 8.02117187 11.4528125 8.50328125 12 9 C11.01 9.33 10.02 9.66 9 10 C7.24609375 8.92578125 7.24609375 8.92578125 5.4375 7.3125 C4.83808594 6.79300781 4.23867188 6.27351563 3.62109375 5.73828125 C1.93577517 3.93113241 0.98665088 2.25309828 0 0 Z " fill="#BBAE99" transform="translate(716,258)"/>
<path d="M0 0 C0 3 0 3 -1.35546875 4.75390625 C-7.43407488 10.75474769 -7.43407488 10.75474769 -12 12 C-9.42925077 7.71541795 -7.38422822 5.36073827 -3 3 C-1.24850835 1.41754725 -1.24850835 1.41754725 0 0 Z " fill="#B8AB93" transform="translate(735,743)"/>
<path d="M0 0 C0.33 0 0.66 0 1 0 C1 2.64 1 5.28 1 8 C0.34 8 -0.32 8 -1 8 C-1.12375 9.2375 -1.2475 10.475 -1.375 11.75 C-1.69239336 14.92393362 -2.4521169 17.20625977 -4 20 C-3.42978625 13.04339229 -1.98697306 6.68572695 0 0 Z " fill="#B4A58E" transform="translate(199,423)"/>
<path d="M0 0 C1.91595968 -0.08133791 3.83291932 -0.13934367 5.75 -0.1875 C7.35101562 -0.23970703 7.35101562 -0.23970703 8.984375 -0.29296875 C12.30027855 0.02917214 13.59016673 0.77148914 16 3 C13.89521396 2.88590318 11.79115423 2.75834639 9.6875 2.625 C8.51574219 2.55539062 7.34398437 2.48578125 6.13671875 2.4140625 C3 2 3 2 0 0 Z " fill="#BAAC97" transform="translate(702,372)"/>
<path d="M0 0 C6.2054142 0.48320848 11.99945246 1.33318124 18 3 C18 3.33 18 3.66 18 4 C11.19796625 4.37634203 6.24309927 3.77471079 0 1 C0 0.67 0 0.34 0 0 Z " fill="#B9AA94" transform="translate(571,191)"/>
<path d="M0 0 C0.33 0 0.66 0 1 0 C1.38281159 5.23175837 0.21854707 8.37802694 -2 13 C-2.99 12.67 -3.98 12.34 -5 12 C-3.35 8.04 -1.7 4.08 0 0 Z " fill="#BEB19E" transform="translate(832,632)"/>
<path d="M0 0 C1.60407328 -0.02708567 3.2082785 -0.04643483 4.8125 -0.0625 C5.70582031 -0.07410156 6.59914063 -0.08570313 7.51953125 -0.09765625 C10 0 10 0 13 1 C13 1.66 13 2.32 13 3 C13.66 3.33 14.32 3.66 15 4 C9.86496656 3.35812082 5.0056546 2.31727753 0 1 C0 0.67 0 0.34 0 0 Z " fill="#BCB09A" transform="translate(414,373)"/>
<path d="M0 0 C0.93045933 2.55144824 1.08564091 3.74006478 0.22265625 6.359375 C-0.16019531 7.14828125 -0.54304687 7.9371875 -0.9375 8.75 C-1.50791016 9.94882812 -1.50791016 9.94882812 -2.08984375 11.171875 C-2.39019531 11.77515625 -2.69054687 12.3784375 -3 13 C-3.33 13 -3.66 13 -4 13 C-4.19622241 8.78121808 -3.80230168 5.82989106 -2 2 C-1.34 2 -0.68 2 0 2 C0 1.34 0 0.68 0 0 Z " fill="#BCAF99" transform="translate(816,619)"/>
<path d="M0 0 C0.33 0 0.66 0 1 0 C0.67 6.6 0.34 13.2 0 20 C-0.33 20 -0.66 20 -1 20 C-1.22162857 17.22964291 -1.42779249 14.45961005 -1.625 11.6875 C-1.68945312 10.90181641 -1.75390625 10.11613281 -1.8203125 9.30664062 C-1.871875 8.54931641 -1.9234375 7.79199219 -1.9765625 7.01171875 C-2.02893066 6.31522217 -2.08129883 5.61872559 -2.13525391 4.90112305 C-2 3 -2 3 0 0 Z " fill="#D2C8B7" transform="translate(595,454)"/>
<path d="M0 0 C1.72274487 2.58411731 2.68895522 4.54902656 3.6875 7.4375 C3.95949219 8.19933594 4.23148438 8.96117187 4.51171875 9.74609375 C5 12 5 12 4 16 C3.34 13.36 2.68 10.72 2 8 C1.34 8 0.68 8 0 8 C-0.79953138 4.71303767 -1.09658936 3.28976808 0 0 Z " fill="#CCC2B2" transform="translate(839,396)"/>
<path d="M0 0 C4.36109605 0.50710419 7.45075299 1.36341651 11 4 C11.33 4.99 11.66 5.98 12 7 C7.69235185 5.43358249 3.93828536 3.31663844 0 1 C0 0.67 0 0.34 0 0 Z " fill="#BCB09A" transform="translate(437,380)"/>
<path d="M0 0 C3.13190982 1.0799689 4.00599212 2.00950474 5.8125 4.875 C7.05537349 8.1457197 7.00271664 8.84860486 6 12 C4.99466333 10.37829621 3.99588093 8.75252763 3 7.125 C2.443125 6.22007812 1.88625 5.31515625 1.3125 4.3828125 C0 2 0 2 0 0 Z " fill="#BDB09B" transform="translate(809,335)"/>
<path d="M0 0 C1.32 0.33 2.64 0.66 4 1 C1.03 3.64 -1.94 6.28 -5 9 C-5.66 8.67 -6.32 8.34 -7 8 C-4.69 5.36 -2.38 2.72 0 0 Z " fill="#BBAF99" transform="translate(295,241)"/>
<path d="M0 0 C4.04420651 1.77945087 7.46078487 4.39529673 11 7 C9.1640625 7.60546875 9.1640625 7.60546875 7 8 C3.58658047 5.80565887 1.48985569 3.79235994 0 0 Z " fill="#BCAF99" transform="translate(307,783)"/>
<path d="M0 0 C1.32 0.33 2.64 0.66 4 1 C1.03 3.64 -1.94 6.28 -5 9 C-5.66 8.67 -6.32 8.34 -7 8 C-4.69 5.36 -2.38 2.72 0 0 Z " fill="#BBAF98" transform="translate(718,756)"/>
<path d="M0 0 C3.66881155 0.70554068 6.70450534 2.27735506 10 4 C9.67 4.99 9.34 5.98 9 7 C6.62051228 6.82374165 5.29774151 6.30280227 3.62109375 4.59765625 C2.37884514 3.09350908 1.18623944 1.54870149 0 0 Z " fill="#C1B5A1" transform="translate(478,627)"/>
<path d="M0 0 C1.44715727 3.87186448 0.5441918 6.8232328 -0.4375 10.75 C-0.86869141 12.50570312 -0.86869141 12.50570312 -1.30859375 14.296875 C-1.53675781 15.18890625 -1.76492188 16.0809375 -2 17 C-3.03115279 13.73086376 -2.9638984 11.13958652 -2.5625 7.75 C-2.46066406 6.85796875 -2.35882812 5.9659375 -2.25390625 5.046875 C-2.17011719 4.37140625 -2.08632813 3.6959375 -2 3 C-1.34 3 -0.68 3 0 3 C0 2.01 0 1.02 0 0 Z " fill="#CFC6B6" transform="translate(850,575)"/>
<path d="M0 0 C2.57619276 1.91315119 2.98395232 2.9016314 3.51171875 6.13671875 C3.56972656 7.30847656 3.62773437 8.48023438 3.6875 9.6875 C3.75324219 10.86699219 3.81898438 12.04648437 3.88671875 13.26171875 C3.92410156 14.16535156 3.96148437 15.06898438 4 16 C0.64002241 10.96003362 -0.29282455 6.00290323 0 0 Z " fill="#B7A993" transform="translate(195,573)"/>
<path d="M0 0 C3 3 3 3 3.07421875 5.69921875 C2.94660156 6.68535156 2.81898438 7.67148437 2.6875 8.6875 C2.50767578 10.17830078 2.50767578 10.17830078 2.32421875 11.69921875 C2.21722656 12.45847656 2.11023438 13.21773437 2 14 C1.34 13.67 0.68 13.34 0 13 C0 8.71 0 4.42 0 0 Z " fill="#CFC4B3" transform="translate(393,558)"/>
<path d="M0 0 C0.99 0 1.98 0 3 0 C2.38545304 3.99455527 0.29353263 6.74466336 -2 10 C-2.6875 8.375 -2.6875 8.375 -3 6 C-1.5625 2.75 -1.5625 2.75 0 0 Z " fill="#BFB39E" transform="translate(726,546)"/>
<path d="M0 0 C0.66 0 1.32 0 2 0 C3.06795656 5.57710648 2.82622671 10.39436958 2 16 C1.67 16 1.34 16 1 16 C0.67 10.72 0.34 5.44 0 0 Z " fill="#CDC2B1" transform="translate(391,540)"/>
<path d="M0 0 C0.640625 1.80078125 0.640625 1.80078125 1 4 C-3 9.66666667 -3 9.66666667 -7 11 C-5.22054913 6.95579349 -2.60470327 3.53921513 0 0 Z " fill="#BBAE98" transform="translate(462,479)"/>
<path d="M0 0 C2.9555377 2.75170751 5.11563315 5.41970299 7 9 C7 9.66 7 10.32 7 11 C3.17131081 9.54773858 1.7461047 7.66681987 0 4 C0 2.68 0 1.36 0 0 Z " fill="#BFB29E" transform="translate(690,399)"/>
<path d="M0 0 C8 0.92307692 8 0.92307692 11 3 C11.33 3.99 11.66 4.98 12 6 C10.55903414 5.57405412 9.12231288 5.13373367 7.6875 4.6875 C6.88699219 4.44386719 6.08648438 4.20023438 5.26171875 3.94921875 C2.90035427 2.95817977 1.66120007 1.91925057 0 0 Z " fill="#BCAF9A" transform="translate(657,198)"/>
<path d="M0 0 C0.33 0.66 0.66 1.32 1 2 C1.66 2 2.32 2 3 2 C4.60355101 5.50776784 5.22036864 8.14354879 5 12 C4.34 12 3.68 12 3 12 C2.49440092 10.56445975 1.9957251 9.1264798 1.5 7.6875 C1.2215625 6.88699219 0.943125 6.08648438 0.65625 5.26171875 C0 3 0 3 0 0 Z " fill="#BFB29D" transform="translate(205,610)"/>
<path d="M0 0 C3.26460973 1.80412643 4.88929795 2.83394693 7 6 C7.125 8.6875 7.125 8.6875 7 11 C5.66104368 9.33784732 4.32869858 7.67036393 3 6 C2.4225 5.278125 1.845 4.55625 1.25 3.8125 C0 2 0 2 0 0 Z " fill="#BCAF98" transform="translate(445,533)"/>
<path d="M0 0 C0.33 0 0.66 0 1 0 C0.67 5.94 0.34 11.88 0 18 C-0.33 18 -0.66 18 -1 18 C-1.22181406 15.56304285 -1.42791119 13.126474 -1.625 10.6875 C-1.68945312 9.99720703 -1.75390625 9.30691406 -1.8203125 8.59570312 C-2.11802847 4.7440028 -2.20763723 3.31145584 0 0 Z " fill="#D1C9B9" transform="translate(728,416)"/>
<path d="M0 0 C6.39534884 0.69767442 6.39534884 0.69767442 9 2 C9 2.66 9 3.32 9 4 C9.66 4.33 10.32 4.66 11 5 C9.5608866 4.71640113 8.12374482 4.42278601 6.6875 4.125 C5.88699219 3.96257812 5.08648438 3.80015625 4.26171875 3.6328125 C2 3 2 3 -1 1 C-0.67 0.67 -0.34 0.34 0 0 Z " fill="#BFB29E" transform="translate(622,183)"/>
<path d="M0 0 C4.85077588 1.11940982 7.777893 2.1334716 11 6 C10.01 6.495 10.01 6.495 9 7 C7.4972763 6.02501855 5.99788037 5.04490611 4.5 4.0625 C3.6646875 3.51722656 2.829375 2.97195313 1.96875 2.41015625 C1.3190625 1.94480469 0.669375 1.47945312 0 1 C0 0.67 0 0.34 0 0 Z " fill="#BAAC96" transform="translate(329,775)"/>
<path d="M0 0 C3.21043882 1.38188453 5.04936365 2.92421903 7.25 5.625 C8.03117187 6.57246094 8.03117187 6.57246094 8.828125 7.5390625 C9.40820312 8.26222656 9.40820312 8.26222656 10 9 C6.43179569 8.44149846 5.00428942 7.27801323 2.75 4.5 C1.96882813 3.55640625 1.96882813 3.55640625 1.171875 2.59375 C0 1 0 1 0 0 Z " fill="#B9AC95" transform="translate(277,758)"/>
<path d="M0 0 C3 1 3 1 4.1875 3.25 C4.99938294 5.99791147 5.16260121 8.15447889 5 11 C1.71779105 9.35889552 1.25429211 6.30677012 0 3 C0 2.01 0 1.02 0 0 Z " fill="#BEB29E" transform="translate(605,591)"/>
<path d="M0 0 C0.33 0 0.66 0 1 0 C0.88570603 1.77155654 0.75816963 3.54226229 0.625 5.3125 C0.52058594 6.79169922 0.52058594 6.79169922 0.4140625 8.30078125 C0 11 0 11 -2 14 C-2 10.37 -2 6.74 -2 3 C-1.34 3 -0.68 3 0 3 C0 2.01 0 1.02 0 0 Z " fill="#B8AB94" transform="translate(831,564)"/>
<path d="M0 0 C0.66 0.33 1.32 0.66 2 1 C-0.25740623 3.33524782 -2.2805761 5.18705073 -5 7 C-6.32 6.67 -7.64 6.34 -9 6 C-6.03 4.02 -3.06 2.04 0 0 Z " fill="#BDAF9A" transform="translate(345,231)"/>
<path d="M0 0 C1.258125 -0.020625 2.51625 -0.04125 3.8125 -0.0625 C4.52019531 -0.07410156 5.22789062 -0.08570313 5.95703125 -0.09765625 C8 0 8 0 11 1 C11 1.66 11 2.32 11 3 C11.66 3.33 12.32 3.66 13 4 C8.51474352 3.343621 4.33085971 2.29925791 0 1 C0 0.67 0 0.34 0 0 Z " fill="#BDAF99" transform="translate(606,179)"/>
<path d="M0 0 C-0.33 0.99 -0.66 1.98 -1 3 C-6.28 3 -11.56 3 -17 3 C-17 2.67 -17 2.34 -17 2 C-15.10507994 1.66151348 -13.20901534 1.32943089 -11.3125 1 C-9.72888672 0.7215625 -9.72888672 0.7215625 -8.11328125 0.4375 C-5.35095938 0.04931926 -2.78257957 -0.08259976 0 0 Z " fill="#D1C8B7" transform="translate(460,169)"/>
<path d="M0 0 C-0.99 0.495 -0.99 0.495 -2 1 C-2 1.66 -2 2.32 -2 3 C-5.3 3 -8.6 3 -12 3 C-8.62446616 -0.37553384 -4.59080647 -0.1311659 0 0 Z " fill="#B6A893" transform="translate(596,842)"/>
<path d="M0 0 C4.04648443 1.34882814 4.95502599 3.34826069 7 7 C6.67 7.99 6.34 8.98 6 10 C4.99421411 8.71283353 3.99553202 7.42011342 3 6.125 C2.443125 5.40570312 1.88625 4.68640625 1.3125 3.9453125 C0 2 0 2 0 0 Z " fill="#BDB09A" transform="translate(467,613)"/>
<path d="M0 0 C0.33 0.66 0.66 1.32 1 2 C0.00390625 4.1640625 0.00390625 4.1640625 -1.4375 6.625 C-1.91058594 7.44226563 -2.38367188 8.25953125 -2.87109375 9.1015625 C-3.24363281 9.72804688 -3.61617187 10.35453125 -4 11 C-4.33 11 -4.66 11 -5 11 C-4.50769231 4.6 -4.50769231 4.6 -1.9375 1.5625 C-0.9784375 0.7890625 -0.9784375 0.7890625 0 0 Z " fill="#BFB29D" transform="translate(707,586)"/>
<path d="M0 0 C0.66 0 1.32 0 2 0 C2.375 7.5 2.375 7.5 -1 12 C-0.67 8.04 -0.34 4.08 0 0 Z " fill="#BBAE98" transform="translate(850,566)"/>
<path d="M0 0 C0.33 0 0.66 0 1 0 C1.14285714 7.42857143 1.14285714 7.42857143 0 11 C-0.66 11 -1.32 11 -2 11 C-2.33 11.66 -2.66 12.32 -3 13 C-2.68991116 11.39536551 -2.37683713 9.79130769 -2.0625 8.1875 C-1.88847656 7.29417969 -1.71445313 6.40085937 -1.53515625 5.48046875 C-1 3 -1 3 0 0 Z " fill="#BCAF97" transform="translate(203,409)"/>
<path d="M0 0 C0.33 0.99 0.66 1.98 1 3 C-2.21311475 8.73770492 -2.21311475 8.73770492 -6 10 C-4.6302836 6.00499382 -2.74277578 3.19990508 0 0 Z " fill="#BCAE98" transform="translate(619,385)"/>
<path d="M0 0 C-0.99 0.33 -1.98 0.66 -3 1 C-3 1.66 -3 2.32 -3 3 C-6.63 3.33 -10.26 3.66 -14 4 C-10.28835785 0.28835785 -5.09745779 -0.30893684 0 0 Z " fill="#B7AA94" transform="translate(439,194)"/>
<path d="M0 0 C-0.99 1.485 -0.99 1.485 -2 3 C-6.29 2.67 -10.58 2.34 -15 2 C-15 1.67 -15 1.34 -15 1 C-9.92928099 0.28832014 -5.11791642 -0.10662326 0 0 Z " fill="#D2C8B6" transform="translate(475,167)"/>
<path d="M0 0 C3.3 0.99 6.6 1.98 10 3 C10 3.33 10 3.66 10 4 C8.741875 4.020625 7.48375 4.04125 6.1875 4.0625 C5.47980469 4.07410156 4.77210938 4.08570313 4.04296875 4.09765625 C2 4 2 4 -1 3 C-0.67 2.01 -0.34 1.02 0 0 Z " fill="#BFB29D" transform="translate(410,835)"/>
<path d="M0 0 C3.33717549 1.3809002 5.22301036 2.8201238 7 6 C6.57421875 8.1328125 6.57421875 8.1328125 6 10 C4.99421411 8.71283353 3.99553202 7.42011342 3 6.125 C2.443125 5.40570312 1.88625 4.68640625 1.3125 3.9453125 C0 2 0 2 0 0 Z " fill="#BCAE98" transform="translate(242,686)"/>
<path d="M0 0 C2.64465038 3.1254959 3.84414715 6.08788267 5 10 C4.01 10.495 4.01 10.495 3 11 C0.84694043 7.14243493 -0.39253254 4.44870215 0 0 Z " fill="#BDB19C" transform="translate(201,652)"/>
<path d="M0 0 C3 2 3 2 3.51171875 4.1640625 C3.56972656 4.97617187 3.62773437 5.78828125 3.6875 6.625 C3.75324219 7.44226563 3.81898438 8.25953125 3.88671875 9.1015625 C3.92410156 9.72804688 3.96148437 10.35453125 4 11 C0.85041169 7.57653445 0.43820891 4.55737263 0 0 Z " fill="#BAAE99" transform="translate(461,598)"/>
<path d="M0 0 C3 2 3 2 3.51171875 4.1640625 C3.56972656 4.97617187 3.62773438 5.78828125 3.6875 6.625 C3.75324219 7.44226563 3.81898438 8.25953125 3.88671875 9.1015625 C3.92410156 9.72804688 3.96148438 10.35453125 4 11 C1.73030256 8.73030256 1.00868171 7.02604513 0 4 C0 2.68 0 1.36 0 0 Z " fill="#BDB09A" transform="translate(601,579)"/>
<path d="M0 0 C2.10827055 3.16240582 2.33817465 4.50657469 2.625 8.1875 C2.69976562 9.08855469 2.77453125 9.98960937 2.8515625 10.91796875 C2.90054687 11.60503906 2.94953125 12.29210937 3 13 C2.01 13 1.02 13 0 13 C0 8.71 0 4.42 0 0 Z " fill="#CFC5B5" transform="translate(470,413)"/>
<path d="M0 0 C3.26460973 1.80412643 4.88929795 2.83394693 7 6 C6.625 8.1875 6.625 8.1875 6 10 C4.99421411 8.71283353 3.99553202 7.42011342 3 6.125 C2.443125 5.40570313 1.88625 4.68640625 1.3125 3.9453125 C0 2 0 2 0 0 Z " fill="#BEB29D" transform="translate(459,396)"/>
<path d="M0 0 C3.48331435 3.01887244 4.79157144 5.56909529 6 10 C3 9 3 9 1.3125 6.6875 C0 4 0 4 0 0 Z " fill="#BFB29D" transform="translate(792,345)"/>
<path d="M0 0 C0.66 0.33 1.32 0.66 2 1 C0.02 3.31 -1.96 5.62 -4 8 C-4.99 7.67 -5.98 7.34 -7 7 C-4.69 4.69 -2.38 2.38 0 0 Z " fill="#BBAD97" transform="translate(299,265)"/>
<path d="M0 0 C8.03571429 0.80357143 8.03571429 0.80357143 12 3 C10.37581255 3.08090971 8.75048255 3.13914995 7.125 3.1875 C5.76761719 3.23970703 5.76761719 3.23970703 4.3828125 3.29296875 C3.20332031 3.14794922 3.20332031 3.14794922 2 3 C1.34 2.01 0.68 1.02 0 0 Z " fill="#B7A892" transform="translate(433,842)"/>
<path d="M0 0 C4.38889325 0.66498383 7.9811485 2.18757677 12 4 C12 4.33 12 4.66 12 5 C6.25 5.125 6.25 5.125 4 4 C4 3.34 4 2.68 4 2 C2.68 1.34 1.36 0.68 0 0 Z " fill="#B9AB95" transform="translate(378,824)"/>
<path d="M0 0 C2.97 0.33 5.94 0.66 9 1 C9.33 1.99 9.66 2.98 10 4 C8.51882199 3.71872579 7.04006751 3.42466268 5.5625 3.125 C4.73878906 2.96257813 3.91507812 2.80015625 3.06640625 2.6328125 C2.38449219 2.42398438 1.70257813 2.21515625 1 2 C0.67 1.34 0.34 0.68 0 0 Z " fill="#BEB09B" transform="translate(395,810)"/>
<path d="M0 0 C2.631724 2.45627573 4.81527263 4.55352037 6 8 C5.71101782 9.34364362 5.38228783 10.67986936 5 12 C4.15885829 10.56705502 3.32734313 9.12845595 2.5 7.6875 C1.80390625 6.48673828 1.80390625 6.48673828 1.09375 5.26171875 C0 3 0 3 0 0 Z " fill="#BAAC95" transform="translate(220,647)"/>
<path d="M0 0 C3.91211733 1.15585285 6.8745041 2.35534962 10 5 C3.49955237 4.38675022 3.49955237 4.38675022 1.0625 2.5 C0 1 0 1 0 0 Z " fill="#BCAF9B" transform="translate(359,815)"/>
<path d="M0 0 C0.66 0.33 1.32 0.66 2 1 C-1.07999946 4.67230705 -3.2482602 5.56802365 -8 6 C-5.63404067 3.38499232 -3.13950774 1.61000397 0 0 Z " fill="#B8AB94" transform="translate(695,799)"/>
<path d="M0 0 C3.59391114 1.33488128 6.75490696 2.96022723 10 5 C9.01 5.495 9.01 5.495 8 6 C4.4375 4.75 4.4375 4.75 1 3 C0.67 2.01 0.34 1.02 0 0 Z " fill="#BAAC96" transform="translate(332,800)"/>
<path d="M0 0 C0.33 0.66 0.66 1.32 1 2 C1.66 2 2.32 2 3 2 C3 4.97 3 7.94 3 11 C0.43383368 7.15075052 0.44902324 4.5650696 0 0 Z " fill="#B8AC97" transform="translate(844,417)"/>
<path d="M0 0 C0.33 0 0.66 0 1 0 C0.38461538 6.52307692 0.38461538 6.52307692 -1.5625 8.9375 C-2.036875 9.288125 -2.51125 9.63875 -3 10 C-3.33 9.34 -3.66 8.68 -4 8 C-3.22265625 6.0546875 -3.22265625 6.0546875 -2.0625 3.875 C-1.49208984 2.78832031 -1.49208984 2.78832031 -0.91015625 1.6796875 C-0.60980469 1.12539063 -0.30945313 0.57109375 0 0 Z " fill="#BDAF9A" transform="translate(223,361)"/>
<path d="M0 0 C3.93673644 1.31224548 6.22719294 2.91910327 9 6 C4.70042176 5.52226908 2.78280018 4.29813355 0 1 C0 0.67 0 0.34 0 0 Z " fill="#BDB19B" transform="translate(685,236)"/>
<path d="M0 0 C-2.3129482 2.3129482 -3.47904875 2.49580975 -6.625 3.125 C-7.44226563 3.29257813 -8.25953125 3.46015625 -9.1015625 3.6328125 C-10.04128906 3.81457031 -10.04128906 3.81457031 -11 4 C-10.34 3.67 -9.68 3.34 -9 3 C-9 2.34 -9 1.68 -9 1 C-5.8035914 -0.06546953 -3.34252724 -0.07427838 0 0 Z " fill="#BAAC97" transform="translate(408,182)"/>
<path d="M0 0 C-1 1.5 -1 1.5 -3 3 C-5.71846235 3.27345479 -8.25677199 3.13491285 -11 3 C-7.11595442 0.41063628 -4.5725325 -0.12358196 0 0 Z " fill="#B7A993" transform="translate(612,838)"/>
<path d="M0 0 C3.3 0.99 6.6 1.98 10 3 C10 3.33 10 3.66 10 4 C7.03 3.67 4.06 3.34 1 3 C0.67 2.01 0.34 1.02 0 0 Z " fill="#BBAE98" transform="translate(391,829)"/>
<path d="M0 0 C0.66 0.33 1.32 0.66 2 1 C0.02579865 3.52259061 -0.96745642 3.9929808 -4.1875 4.6875 C-5.5796875 4.8421875 -5.5796875 4.8421875 -7 5 C-4.88437775 2.67281553 -2.94982021 1.14186589 0 0 Z " fill="#BCAF98" transform="translate(431,507)"/>
<path d="M0 0 C0.33 0 0.66 0 1 0 C0.25 7.75 0.25 7.75 -2 10 C-2 7.36 -2 4.72 -2 2 C-1.34 2 -0.68 2 0 2 C0 1.34 0 0.68 0 0 Z " fill="#B7AB94" transform="translate(182,411)"/>
<path d="M0 0 C-1.36983503 3.16115776 -1.9890638 3.9927092 -5 6 C-5.99 5.67 -6.98 5.34 -8 5 C-2.25 0 -2.25 0 0 0 Z " fill="#BDB09A" transform="translate(322,248)"/>
<path d="M0 0 C2.64 0.33 5.28 0.66 8 1 C8.33 1.99 8.66 2.98 9 4 C5.65626525 3.44271087 2.96687001 2.64826111 0 1 C0 0.67 0 0.34 0 0 Z " fill="#BEB19B" transform="translate(634,188)"/>
<path d="M0 0 C-1.36983503 3.16115776 -1.9890638 3.9927092 -5 6 C-5.99 5.67 -6.98 5.34 -8 5 C-2.25 0 -2.25 0 0 0 Z " fill="#B9AC95" transform="translate(725,779)"/>
<path d="M0 0 C2 0 2 0 4.625 2.375 C7 5 7 5 7 7 C5.1875 6.8125 5.1875 6.8125 3 6 C0 1.71428571 0 1.71428571 0 0 Z " fill="#BEB19B" transform="translate(264,745)"/>
<path d="M0 0 C0.33 0.99 0.66 1.98 1 3 C-0.9375 5.6875 -0.9375 5.6875 -3 8 C-3.99 7.67 -4.98 7.34 -6 7 C-4.02 4.69 -2.04 2.38 0 0 Z " fill="#B9AC96" transform="translate(771,733)"/>
<path d="M0 0 C0.33 0.66 0.66 1.32 1 2 C0.22265625 3.7265625 0.22265625 3.7265625 -0.9375 5.625 C-1.618125 6.73875 -2.29875 7.8525 -3 9 C-3.33 9 -3.66 9 -4 9 C-4.25 6.75 -4.25 6.75 -4 4 C-2 1.6875 -2 1.6875 0 0 Z " fill="#BEB09A" transform="translate(790,674)"/>
<path d="M0 0 C3.00617269 3.00617269 2.59585316 5.82381598 3 10 C2.67 9.34 2.34 8.68 2 8 C1.34 8 0.68 8 0 8 C0 5.36 0 2.72 0 0 Z " fill="#B7AA94" transform="translate(398,590)"/>
<path d="M0 0 C0.33 0.99 0.66 1.98 1 3 C1.66 3 2.32 3 3 3 C3 5.64 3 8.28 3 11 C0.43383368 7.15075052 0.44902324 4.5650696 0 0 Z " fill="#B7AB94" transform="translate(598,567)"/>
<path d="M0 0 C2.50298434 2.93828597 3.46930939 5.17902761 4 9 C3.34 9 2.68 9 2 9 C0.14223235 5.86501708 -0.20140476 3.62528568 0 0 Z " fill="#BFB39D" transform="translate(386,526)"/>
<path d="M0 0 C1.32 0 2.64 0 4 0 C4 0.66 4 1.32 4 2 C5.32 2.66 6.64 3.32 8 4 C7.01 4.33 6.02 4.66 5 5 C3.35 3.35 1.7 1.7 0 0 Z " fill="#BEB19D" transform="translate(372,513)"/>
<path d="M0 0 C0 3.90838866 -1.50567876 5.11594107 -4 8 C-4.66 7.67 -5.32 7.34 -6 7 C-4.19587357 3.73539027 -3.16605307 2.11070205 0 0 Z " fill="#BCAF99" transform="translate(395,497)"/>
<path d="M0 0 C0.99 0.33 1.98 0.66 3 1 C-0.465 3.97 -0.465 3.97 -4 7 C-3.04065919 3.16263678 -2.76390737 2.40339772 0 0 Z " fill="#B6A993" transform="translate(558,402)"/>
<path d="M0 0 C2.25 0.25 2.25 0.25 4 1 C2.02 2.32 0.04 3.64 -2 5 C-2.66 4.67 -3.32 4.34 -4 4 C-2.25 1.9375 -2.25 1.9375 0 0 Z " fill="#BBAE99" transform="translate(583,383)"/>
<path d="M0 0 C2.97 0.495 2.97 0.495 6 1 C4.68 2.32 3.36 3.64 2 5 C1.01 4.67 0.02 4.34 -1 4 C-0.34 3.67 0.32 3.34 1 3 C0.67 2.01 0.34 1.02 0 0 Z " fill="#B3A58D" transform="translate(634,368)"/>
<path d="M0 0 C2.3125 0.1875 2.3125 0.1875 5 1 C6.8125 3.5625 6.8125 3.5625 8 6 C4.63408134 4.55746343 2.48952921 2.66735273 0 0 Z " fill="#BBAE98" transform="translate(716,233)"/>
<path d="M0 0 C1.32 0.33 2.64 0.66 4 1 C1.03 3.475 1.03 3.475 -2 6 C-2.66 5.67 -3.32 5.34 -4 5 C-2.68 3.35 -1.36 1.7 0 0 Z " fill="#BBAE98" transform="translate(305,233)"/>
<path d="M0 0 C2.64 0.33 5.28 0.66 8 1 C8.33 1.99 8.66 2.98 9 4 C5.17902761 3.46930939 2.93828597 2.50298434 0 0 Z " fill="#BCAE98" transform="translate(646,193)"/>
<path d="M0 0 C0.33 0.66 0.66 1.32 1 2 C-2.63 1.67 -6.26 1.34 -10 1 C-10 0.67 -10 0.34 -10 0 C-3.34250344 -1.36176066 -3.34250344 -1.36176066 0 0 Z " fill="#D1C7B7" transform="translate(466,848)"/>
<path d="M0 0 C0 3 0 3 -2.5 5.6875 C-3.325 6.450625 -4.15 7.21375 -5 8 C-5.66 7.67 -6.32 7.34 -7 7 C-4.69 4.69 -2.38 2.38 0 0 Z " fill="#B4A68F" transform="translate(743,735)"/>
<path d="M0 0 C0.75 1.75 0.75 1.75 1 4 C-0.9375 6.25 -0.9375 6.25 -3 8 C-3 4.42424104 -1.91159393 2.94704065 0 0 Z " fill="#BEB29C" transform="translate(811,677)"/>
<path d="M0 0 C-4.16138263 0.08159574 -7.9472484 -0.01751476 -12 -1 C-12 -1.33 -12 -1.66 -12 -2 C-7.05687635 -3.20238143 -4.43956276 -2.29632557 0 0 Z " fill="#CDC2B1" transform="translate(449,636)"/>
<path d="M0 0 C2.72426311 2.35277269 3.8141763 4.62496331 5 8 C3.0625 7.375 3.0625 7.375 1 6 C0.25 2.875 0.25 2.875 0 0 Z " fill="#BBAE99" transform="translate(539,577)"/>
<path d="M0 0 C2.55192629 1.27596315 2.99500868 2.37156116 4 5 C3.67 5.99 3.34 6.98 3 8 C1.5 6.8125 1.5 6.8125 0 5 C-0.1875 2.3125 -0.1875 2.3125 0 0 Z " fill="#BBAE98" transform="translate(533,565)"/>
<path d="M0 0 C0.33 0.66 0.66 1.32 1 2 C0.06553465 4.03144641 -0.93224776 6.03533587 -2 8 C-2.33 8 -2.66 8 -3 8 C-2.74438677 5.6568787 -2.40729228 3.32156597 -2 1 C-1.34 0.67 -0.68 0.34 0 0 Z " fill="#C0B49F" transform="translate(402,484)"/>
<path d="M0 0 C2.79872437 2.52788007 4.45773019 4.20411134 5 8 C2 7 2 7 0 4 C0 2.68 0 1.36 0 0 Z " fill="#BCAF9A" transform="translate(698,412)"/>
<path d="M0 0 C0 0.66 0 1.32 0 2 C-2.31 2.33 -4.62 2.66 -7 3 C-6.67 2.01 -6.34 1.02 -6 0 C-3 -1 -3 -1 0 0 Z " fill="#C0B5A1" transform="translate(609,374)"/>
<path d="M0 0 C4 1 4 1 4 1 Z " fill="#C2B8A5" transform="translate(523,854)"/>
<path d="M0 0 C1.485 0.99 1.485 0.99 3 2 C2.01 2 1.02 2 0 2 C0 1.34 0 0.68 0 0 Z " fill="#C2B8A5" transform="translate(434,845)"/>
<path d="M0 0 C4 1 4 1 4 1 Z " fill="#C7BBA9" transform="translate(568,824)"/>
<path d="M0 0 C1 4 1 4 1 4 Z " fill="#CBC0AE" transform="translate(392,572)"/>
<path d="M0 0 C1 4 1 4 1 4 Z " fill="#CCC2B0" transform="translate(404,444)"/>
<path d="M0 0 C4 1 4 1 4 1 Z " fill="#C9BEAB" transform="translate(489,190)"/>
<path d="M0 0 C3 1 3 1 3 1 Z " fill="#C5BBA8" transform="translate(480,853)"/>
<path d="M0 0 C0.66 0.66 1.32 1.32 2 2 C1.34 2 0.68 2 0 2 C0 1.34 0 0.68 0 0 Z " fill="#BFB6A2" transform="translate(336,806)"/>
<path d="" fill="#C9BFAD" transform="translate(0,0)"/>
<path d="" fill="#C8BEAC" transform="translate(0,0)"/>
<path d="M0 0 C3 1 3 1 3 1 Z " fill="#C7BBA8" transform="translate(648,219)"/>
<path d="M0 0 C3 1 3 1 3 1 Z " fill="#C9BDAB" transform="translate(587,198)"/>
<path d="M0 0 C3 1 3 1 3 1 Z " fill="#C7BDA9" transform="translate(584,197)"/>
<path d="M0 0 C2 1 2 1 2 1 Z " fill="#C2B9A6" transform="translate(531,854)"/>
<path d="M0 0 C2 1 2 1 2 1 Z " fill="#C3B9A6" transform="translate(528,854)"/>
<path d="M0 0 C2 1 2 1 2 1 Z " fill="#C6BCA8" transform="translate(563,825)"/>
<path d="M0 0 C2 1 2 1 2 1 Z " fill="#C4BAA7" transform="translate(422,816)"/>
<path d="M0 0 C2 1 2 1 2 1 Z " fill="#C9BEAB" transform="translate(460,638)"/>
<path d="" fill="#CCC1AF" transform="translate(0,0)"/>
<path d="" fill="#C4BAA8" transform="translate(0,0)"/>
<path d="" fill="#C4BAA7" transform="translate(0,0)"/>
<path d="" fill="#CBC1AD" transform="translate(0,0)"/>
<path d="" fill="#CAC0AE" transform="translate(0,0)"/>
<path d="" fill="#CABFAC" transform="translate(0,0)"/>
<path d="" fill="#C2B8A6" transform="translate(0,0)"/>
<path d="" fill="#CCC1AE" transform="translate(0,0)"/>
<path d="" fill="#C9BFAC" transform="translate(0,0)"/>
<path d="" fill="#CCC2B1" transform="translate(0,0)"/>
<path d="M0 0 C2 1 2 1 2 1 Z " fill="#C0B7A4" transform="translate(326,216)"/>
<path d="M0 0 C2 1 2 1 2 1 Z " fill="#C7BCAA" transform="translate(636,214)"/>
<path d="M0 0 C2 1 2 1 2 1 Z " fill="#C9BEAB" transform="translate(539,190)"/>
<path d="" fill="#C2B8A3" transform="translate(0,0)"/>
<path d="" fill="#C3B8A5" transform="translate(0,0)"/>
<path d="" fill="#C6B9A9" transform="translate(0,0)"/>
<path d="" fill="#C4BAA6" transform="translate(0,0)"/>
<path d="" fill="#C3BAA7" transform="translate(0,0)"/>
<path d="" fill="#C2B8A5" transform="translate(0,0)"/>
<path d="" fill="#C1B8A5" transform="translate(0,0)"/>
<path d="" fill="#C6BCAB" transform="translate(0,0)"/>
<path d="" fill="#C0B7A0" transform="translate(0,0)"/>
<path d="" fill="#C5BCA8" transform="translate(0,0)"/>
<path d="" fill="#C5B9A9" transform="translate(0,0)"/>
<path d="" fill="#C3B6A1" transform="translate(0,0)"/>
<path d="" fill="#C1B7A5" transform="translate(0,0)"/>
<path d="" fill="#C4B9A7" transform="translate(0,0)"/>
<path d="" fill="#C0B5A4" transform="translate(0,0)"/>
<path d="" fill="#C3B8A4" transform="translate(0,0)"/>
<path d="" fill="#C4BCA8" transform="translate(0,0)"/>
<path d="" fill="#C9BFAD" transform="translate(0,0)"/>
<path d="" fill="#C2B7A5" transform="translate(0,0)"/>
<path d="" fill="#C4BBA6" transform="translate(0,0)"/>
<path d="" fill="#C5BAA7" transform="translate(0,0)"/>
<path d="" fill="#C6BCA8" transform="translate(0,0)"/>
<path d="" fill="#C0B7A3" transform="translate(0,0)"/>
<path d="" fill="#C1B8A5" transform="translate(0,0)"/>
<path d="" fill="#C0B7A5" transform="translate(0,0)"/>
<path d="" fill="#C5BBA7" transform="translate(0,0)"/>
<path d="" fill="#C3B8A3" transform="translate(0,0)"/>
<path d="" fill="#C2B7A2" transform="translate(0,0)"/>
<path d="" fill="#C4B9A8" transform="translate(0,0)"/>
<path d="" fill="#C6BBA7" transform="translate(0,0)"/>
<path d="" fill="#C5BCA6" transform="translate(0,0)"/>
<path d="" fill="#C5BAA9" transform="translate(0,0)"/>
<path d="" fill="#C4B9A4" transform="translate(0,0)"/>
<path d="" fill="#CABDAB" transform="translate(0,0)"/>
<path d="" fill="#C7BFA9" transform="translate(0,0)"/>
<path d="" fill="#C2B4A3" transform="translate(0,0)"/>
<path d="" fill="#C0B6A2" transform="translate(0,0)"/>
<path d="" fill="#C2B7A5" transform="translate(0,0)"/>
<path d="" fill="#C5B9A5" transform="translate(0,0)"/>
<path d="" fill="#C1B6A2" transform="translate(0,0)"/>
<path d="" fill="#C7BDA9" transform="translate(0,0)"/>
<path d="" fill="#C3B7A5" transform="translate(0,0)"/>
<path d="" fill="#C0B5A3" transform="translate(0,0)"/>
<path d="" fill="#C2B7A5" transform="translate(0,0)"/>
<path d="" fill="#C1B7A5" transform="translate(0,0)"/>
<path d="" fill="#C1B5A3" transform="translate(0,0)"/>
<path d="" fill="#C2B7A4" transform="translate(0,0)"/>
<path d="" fill="#C2B8A4" transform="translate(0,0)"/>
<path d="" fill="#CAC0AD" transform="translate(0,0)"/>
<path d="" fill="#C1B7A4" transform="translate(0,0)"/>
<path d="" fill="#C3B7A4" transform="translate(0,0)"/>
<path d="" fill="#C4BBA7" transform="translate(0,0)"/>
<path d="" fill="#C6BDAA" transform="translate(0,0)"/>
<path d="" fill="#C8BEAA" transform="translate(0,0)"/>
<path d="" fill="#C7BCAB" transform="translate(0,0)"/>
<path d="" fill="#C8BCAA" transform="translate(0,0)"/>
<path d="" fill="#C9BEAB" transform="translate(0,0)"/>
<path d="" fill="#C8BDAA" transform="translate(0,0)"/>
<path d="" fill="#CDC2AC" transform="translate(0,0)"/>
<path d="" fill="#CEC2B2" transform="translate(0,0)"/>
<path d="" fill="#CCC1AD" transform="translate(0,0)"/>
<path d="" fill="#C8BDAB" transform="translate(0,0)"/>
<path d="" fill="#C9C0AC" transform="translate(0,0)"/>
<path d="" fill="#C2B7A6" transform="translate(0,0)"/>
<path d="" fill="#C9BEAD" transform="translate(0,0)"/>
<path d="" fill="#CABEAA" transform="translate(0,0)"/>
<path d="" fill="#C7BDA9" transform="translate(0,0)"/>
<path d="" fill="#CEC1AF" transform="translate(0,0)"/>
<path d="" fill="#C6BCAA" transform="translate(0,0)"/>
<path d="" fill="#CAC1AC" transform="translate(0,0)"/>
<path d="" fill="#CCC3AF" transform="translate(0,0)"/>
<path d="" fill="#C4B9A5" transform="translate(0,0)"/>
<path d="" fill="#CABEAD" transform="translate(0,0)"/>
<path d="" fill="#CABEAD" transform="translate(0,0)"/>
<path d="" fill="#CABCAB" transform="translate(0,0)"/>
<path d="" fill="#CABFAB" transform="translate(0,0)"/>
<path d="" fill="#C2B7A6" transform="translate(0,0)"/>
<path d="" fill="#C3B9A6" transform="translate(0,0)"/>
<path d="" fill="#C9BEAC" transform="translate(0,0)"/>
<path d="" fill="#CCC0AE" transform="translate(0,0)"/>
<path d="" fill="#C2B9A8" transform="translate(0,0)"/>
<path d="" fill="#C5BBA9" transform="translate(0,0)"/>
<path d="" fill="#CAC1AD" transform="translate(0,0)"/>
<path d="" fill="#C8BEAC" transform="translate(0,0)"/>
<path d="" fill="#CAC0AE" transform="translate(0,0)"/>
<path d="" fill="#CCC0AF" transform="translate(0,0)"/>
<path d="" fill="#CBC0AD" transform="translate(0,0)"/>
<path d="" fill="#CCC0AC" transform="translate(0,0)"/>
<path d="" fill="#CCC0B0" transform="translate(0,0)"/>
<path d="" fill="#CCC2AE" transform="translate(0,0)"/>
<path d="" fill="#CAC1AE" transform="translate(0,0)"/>
<path d="" fill="#C5BAA9" transform="translate(0,0)"/>
<path d="" fill="#CABFAE" transform="translate(0,0)"/>
<path d="" fill="#CCC2AF" transform="translate(0,0)"/>
<path d="" fill="#CABFAA" transform="translate(0,0)"/>
<path d="" fill="#C9C0AC" transform="translate(0,0)"/>
<path d="" fill="#CEC4B1" transform="translate(0,0)"/>
<path d="" fill="#CBC1AD" transform="translate(0,0)"/>
<path d="" fill="#CDC1B0" transform="translate(0,0)"/>
<path d="" fill="#CDC3B0" transform="translate(0,0)"/>
<path d="" fill="#CDC2AF" transform="translate(0,0)"/>
<path d="" fill="#CBC2AF" transform="translate(0,0)"/>
<path d="" fill="#CDBFAE" transform="translate(0,0)"/>
<path d="" fill="#CEC1B0" transform="translate(0,0)"/>
<path d="" fill="#C7BBA8" transform="translate(0,0)"/>
<path d="" fill="#C8BBAB" transform="translate(0,0)"/>
<path d="" fill="#CABEAD" transform="translate(0,0)"/>
<path d="" fill="#C8C0AB" transform="translate(0,0)"/>
<path d="" fill="#C2B7A4" transform="translate(0,0)"/>
<path d="" fill="#C7BDAB" transform="translate(0,0)"/>
<path d="" fill="#CCBFAC" transform="translate(0,0)"/>
<path d="" fill="#C8BDAA" transform="translate(0,0)"/>
<path d="" fill="#CCC2AF" transform="translate(0,0)"/>
<path d="" fill="#CBC0AE" transform="translate(0,0)"/>
<path d="" fill="#CDBFAB" transform="translate(0,0)"/>
<path d="" fill="#CBBEAD" transform="translate(0,0)"/>
<path d="" fill="#CCC1AD" transform="translate(0,0)"/>
<path d="" fill="#C8C0AD" transform="translate(0,0)"/>
<path d="" fill="#CCC2AF" transform="translate(0,0)"/>
<path d="" fill="#CCC2AF" transform="translate(0,0)"/>
<path d="" fill="#C3B7A6" transform="translate(0,0)"/>
<path d="" fill="#CCC0AE" transform="translate(0,0)"/>
<path d="" fill="#CBBFAF" transform="translate(0,0)"/>
<path d="" fill="#CABFAF" transform="translate(0,0)"/>
<path d="" fill="#C7BFAD" transform="translate(0,0)"/>
<path d="" fill="#CBC0AE" transform="translate(0,0)"/>
<path d="" fill="#C6B9A7" transform="translate(0,0)"/>
<path d="" fill="#CBC2B0" transform="translate(0,0)"/>
<path d="" fill="#C9C0AD" transform="translate(0,0)"/>
<path d="" fill="#C9C0AD" transform="translate(0,0)"/>
<path d="" fill="#C9BEAB" transform="translate(0,0)"/>
<path d="" fill="#CDC0AE" transform="translate(0,0)"/>
<path d="" fill="#C8BEAA" transform="translate(0,0)"/>
<path d="" fill="#CCBFAC" transform="translate(0,0)"/>
<path d="" fill="#C7BBA8" transform="translate(0,0)"/>
<path d="" fill="#CAC0AE" transform="translate(0,0)"/>
<path d="" fill="#C5BAA8" transform="translate(0,0)"/>
<path d="" fill="#C5B9A8" transform="translate(0,0)"/>
<path d="" fill="#CBC1B0" transform="translate(0,0)"/>
<path d="" fill="#CDC3AF" transform="translate(0,0)"/>
<path d="" fill="#C8C0AD" transform="translate(0,0)"/>
<path d="" fill="#C7BCAA" transform="translate(0,0)"/>
<path d="" fill="#C5BBA8" transform="translate(0,0)"/>
<path d="" fill="#CBC1B0" transform="translate(0,0)"/>
<path d="" fill="#C2B9A6" transform="translate(0,0)"/>
<path d="" fill="#C5BAA7" transform="translate(0,0)"/>
<path d="" fill="#C4BBA7" transform="translate(0,0)"/>
<path d="" fill="#C4BAA9" transform="translate(0,0)"/>
<path d="" fill="#C6BBA8" transform="translate(0,0)"/>
<path d="" fill="#C8BDAB" transform="translate(0,0)"/>
<path d="" fill="#C1B7A4" transform="translate(0,0)"/>
<path d="" fill="#C2BAA8" transform="translate(0,0)"/>
<path d="" fill="#C9C0AD" transform="translate(0,0)"/>
<path d="" fill="#C8BBA8" transform="translate(0,0)"/>
<path d="" fill="#BFB6A1" transform="translate(0,0)"/>
<path d="" fill="#CABFAC" transform="translate(0,0)"/>
<path d="" fill="#C9BDAB" transform="translate(0,0)"/>
<path d="" fill="#C8BEAB" transform="translate(0,0)"/>
<path d="" fill="#C8BEAC" transform="translate(0,0)"/>
<path d="" fill="#C2B7A3" transform="translate(0,0)"/>
<path d="" fill="#C7BAA9" transform="translate(0,0)"/>
<path d="" fill="#C7BBA8" transform="translate(0,0)"/>
<path d="" fill="#C8BDAB" transform="translate(0,0)"/>
<path d="" fill="#BEB5A1" transform="translate(0,0)"/>
<path d="" fill="#C2BBA6" transform="translate(0,0)"/>
<path d="" fill="#CBBFAB" transform="translate(0,0)"/>
<path d="" fill="#CABFAB" transform="translate(0,0)"/>
<path d="" fill="#C7BBA9" transform="translate(0,0)"/>
<path d="" fill="#C2B7A3" transform="translate(0,0)"/>
<path d="" fill="#CEC2AE" transform="translate(0,0)"/>
<path d="" fill="#C3B9A5" transform="translate(0,0)"/>
<path d="" fill="#C5B9A7" transform="translate(0,0)"/>
<path d="" fill="#C1B8A6" transform="translate(0,0)"/>
<path d="" fill="#CABDAC" transform="translate(0,0)"/>
<path d="" fill="#BFB8A2" transform="translate(0,0)"/>
<path d="" fill="#C7BCAA" transform="translate(0,0)"/>
<path d="" fill="#C4BBA8" transform="translate(0,0)"/>
<path d="" fill="#C8BDAC" transform="translate(0,0)"/>
<path d="" fill="#CCC0AB" transform="translate(0,0)"/>
<path d="" fill="#C9BEA9" transform="translate(0,0)"/>
<path d="" fill="#C2B7A6" transform="translate(0,0)"/>
<path d="" fill="#CCC2AB" transform="translate(0,0)"/>
<path d="" fill="#C9BCAB" transform="translate(0,0)"/>
<path d="" fill="#C0B5A2" transform="translate(0,0)"/>
<path d="" fill="#C6BCAA" transform="translate(0,0)"/>
<path d="" fill="#C7B9A8" transform="translate(0,0)"/>
<path d="" fill="#C5BBA6" transform="translate(0,0)"/>
<path d="" fill="#CABEAA" transform="translate(0,0)"/>
<path d="" fill="#CABEAB" transform="translate(0,0)"/>
<path d="" fill="#C9BDAC" transform="translate(0,0)"/>
<path d="" fill="#C8BDAA" transform="translate(0,0)"/>
<path d="" fill="#C3B6A3" transform="translate(0,0)"/>
<path d="" fill="#CABDAC" transform="translate(0,0)"/>
<path d="" fill="#C0B6A4" transform="translate(0,0)"/>
<path d="" fill="#C9BEAB" transform="translate(0,0)"/>
<path d="" fill="#C9BDAC" transform="translate(0,0)"/>
<path d="" fill="#C3B9A6" transform="translate(0,0)"/>
<path d="" fill="#C3B7A6" transform="translate(0,0)"/>
<path d="" fill="#C3BAA6" transform="translate(0,0)"/>
<path d="" fill="#C3B9A5" transform="translate(0,0)"/>
<path d="" fill="#C3B9A5" transform="translate(0,0)"/>
<path d="" fill="#C6BCA7" transform="translate(0,0)"/>
<path d="" fill="#C4B9A7" transform="translate(0,0)"/>
<path d="" fill="#C4BAA8" transform="translate(0,0)"/>
<path d="" fill="#C4B8A5" transform="translate(0,0)"/>
<path d="" fill="#C3BBA9" transform="translate(0,0)"/>
</svg>
