<svg xmlns:xlink="http://www.w3.org/1999/xlink"  width="28" height="41" viewBox="0 0 28 41" fill="none" xmlns="http://www.w3.org/2000/svg">
<g clip-path="url(#clip0_35_197)">
<path d="M0.368408 14.1807C0.368408 25.6107 11.7721 34.5535 13.8825 40.3165C13.9528 40.5082 14.0471 40.5082 14.1171 40.3165C16.2271 34.5535 27.6316 25.6107 27.6316 14.1807C27.6316 6.64739 21.5283 0.539383 14 0.539383C6.47278 0.539383 0.368408 6.64739 0.368408 14.1807ZM14 20.7828C10.3567 20.7828 7.40525 17.8274 7.40525 14.1807C7.40525 10.5352 10.3567 7.5809 14 7.5809C17.6422 7.5809 20.5962 10.5355 20.5962 14.1807C20.5962 17.8278 17.6422 20.7828 14 20.7828Z" fill="#F0BF96"/>
</g>
<defs>
<clipPath id="clip0_35_197">
<rect width="28" height="41" fill="white"/>
</clipPath>
</defs>
</svg>
