<svg xmlns:xlink="http://www.w3.org/1999/xlink"  width="48" height="48" viewBox="0 0 48 48" fill="none" xmlns="http://www.w3.org/2000/svg">
<path d="M24 0L24.5268 18.9876L28.9899 0.524458L25.5574 19.2067L33.7617 2.07491L26.52 19.6352L38.1068 4.58359L27.3724 20.2546L41.8355 7.94086L28.0774 21.0376L44.7846 12L28.6043 21.95L46.8254 16.5836L28.9299 22.9521L47.8685 21.4913L29.04 24L47.8685 26.5087L28.9299 25.0479L46.8254 31.4164L28.6043 26.05L44.7846 36L28.0774 26.9624L41.8355 40.0591L27.3724 27.7454L38.1068 43.4164L26.52 28.3648L33.7617 45.9251L25.5574 28.7933L28.9899 47.4755L24.5268 29.0124L24 48L23.4732 29.0124L19.0101 47.4755L22.4426 28.7933L14.2383 45.9251L21.48 28.3648L9.89315 43.4164L20.6276 27.7454L6.16452 40.0591L19.9226 26.9624L3.21539 36L19.3957 26.05L1.17464 31.4164L19.0701 25.0479L0.131475 26.5087L18.96 24L0.131475 21.4913L19.0701 22.9521L1.17464 16.5836L19.3957 21.95L3.21539 12L19.9226 21.0376L6.16452 7.94086L20.6276 20.2546L9.89315 4.58359L21.48 19.6352L14.2383 2.07491L22.4426 19.2067L19.0101 0.524458L23.4732 18.9876L24 0Z" fill="#F0BF96"/>
</svg>
